<?xml version="1.0" encoding="UTF-8" standalone="no"?>
<svg
   xmlns:dc="http://purl.org/dc/elements/1.1/"
   xmlns:cc="http://creativecommons.org/ns#"
   xmlns:rdf="http://www.w3.org/1999/02/22-rdf-syntax-ns#"
   xmlns:svg="http://www.w3.org/2000/svg"
   xmlns="http://www.w3.org/2000/svg"
   viewBox="0 0 3558.6667 452"
   height="452"
   width="3558.6667"
   xml:space="preserve"
   id="svg2"
   version="1.1"><metadata
     id="metadata8"><rdf:RDF><cc:Work
         rdf:about=""><dc:format>image/svg+xml</dc:format><dc:type
           rdf:resource="http://purl.org/dc/dcmitype/StillImage" /></cc:Work></rdf:RDF></metadata><defs
     id="defs6" /><g
     transform="matrix(1.3333333,0,0,1.3333333,0,1.13e-5)"
     id="g10"><g
       id="g12"><path
         id="path14"
         style="fill:#777777;fill-opacity:1;fill-rule:nonzero;stroke:none"
         d="m 92.488,223 c 0,14.539 -11.785,26.328 -26.324,26.328 -14.543,0 -26.328,-11.789 -26.328,-26.328 0,-14.539 11.785,-26.328 26.328,-26.328 14.539,0 26.324,11.789 26.324,26.328" /><path
         id="path16"
         style="fill:none;stroke:#ffffff;stroke-width:3;stroke-linecap:butt;stroke-linejoin:miter;stroke-miterlimit:10;stroke-dasharray:none;stroke-opacity:1"
         d="m 92.488,223 c 0,14.539 -11.785,26.328 -26.324,26.328 -14.543,0 -26.328,-11.789 -26.328,-26.328 0,-14.539 11.785,-26.328 26.328,-26.328 14.539,0 26.324,11.789 26.324,26.328" /><text
         id="text20"
         style="font-variant:normal;font-weight:normal;font-size:26.00024414px;font-family:'DejaVu Sans Mono';-inkscape-font-specification:DejaVuSansMono;writing-mode:lr-tb;fill:#ffffff;fill-opacity:1;fill-rule:nonzero;stroke:none"
         transform="translate(58.164062,229.30078)"><tspan
           id="tspan18"
           y="0"
           x="0">0</tspan></text>
<path
         id="path22"
         style="fill:#777777;fill-opacity:1;fill-rule:nonzero;stroke:#ffffff;stroke-width:3;stroke-linecap:butt;stroke-linejoin:miter;stroke-miterlimit:10;stroke-dasharray:none;stroke-opacity:1"
         d="m 253.816,223 c 0,14.539 -11.789,26.328 -26.328,26.328 -14.539,0 -26.328,-11.789 -26.328,-26.328 0,-14.539 11.789,-26.328 26.328,-26.328 14.539,0 26.328,11.789 26.328,26.328" /><text
         id="text26"
         style="font-variant:normal;font-weight:normal;font-size:26.00024414px;font-family:'DejaVu Sans Mono';-inkscape-font-specification:DejaVuSansMono;writing-mode:lr-tb;fill:#ffffff;fill-opacity:1;fill-rule:nonzero;stroke:none"
         transform="translate(219.48828,229.30078)"><tspan
           id="tspan24"
           y="0"
           x="0">1</tspan></text>
<path
         id="path28"
         style="fill:none;stroke:#ffffff;stroke-width:3;stroke-linecap:butt;stroke-linejoin:miter;stroke-miterlimit:10;stroke-dasharray:none;stroke-opacity:1"
         d="m 92.41,223 c 26.606,0 68.731,0 98.656,0" /><path
         id="path30"
         style="fill:#ffffff;fill-opacity:1;fill-rule:nonzero;stroke:#ffffff;stroke-width:3;stroke-linecap:butt;stroke-linejoin:miter;stroke-miterlimit:10;stroke-dasharray:none;stroke-opacity:1"
         d="m 191.098,219.5 10,3.5 -10,3.5 z" /><text
         id="text34"
         style="font-variant:normal;font-weight:normal;font-size:60px;font-family:'DejaVu Sans Mono';-inkscape-font-specification:DejaVuSansMono;writing-mode:lr-tb;fill:#90ee90;fill-opacity:1;fill-rule:nonzero;stroke:none"
         transform="translate(110.32422,205)"><tspan
           id="tspan32"
           y="0"
           x="0">а</tspan></text>
<path
         id="path36"
         style="fill:#777777;fill-opacity:1;fill-rule:nonzero;stroke:#ffffff;stroke-width:3;stroke-linecap:butt;stroke-linejoin:miter;stroke-miterlimit:10;stroke-dasharray:none;stroke-opacity:1"
         d="m 415.141,223 c 0,14.539 -11.786,26.328 -26.325,26.328 -14.543,0 -26.328,-11.789 -26.328,-26.328 0,-14.539 11.785,-26.328 26.328,-26.328 14.539,0 26.325,11.789 26.325,26.328" /><text
         id="text40"
         style="font-variant:normal;font-weight:normal;font-size:26.00024414px;font-family:'DejaVu Sans Mono';-inkscape-font-specification:DejaVuSansMono;writing-mode:lr-tb;fill:#ffffff;fill-opacity:1;fill-rule:nonzero;stroke:none"
         transform="translate(380.81641,229.30078)"><tspan
           id="tspan38"
           y="0"
           x="0">2</tspan></text>
<path
         id="path42"
         style="fill:none;stroke:#ffffff;stroke-width:3;stroke-linecap:butt;stroke-linejoin:miter;stroke-miterlimit:10;stroke-dasharray:none;stroke-opacity:1"
         d="m 253.734,223 c 26.61,0 68.731,0 98.661,0" /><path
         id="path44"
         style="fill:#ffffff;fill-opacity:1;fill-rule:nonzero;stroke:#ffffff;stroke-width:3;stroke-linecap:butt;stroke-linejoin:miter;stroke-miterlimit:10;stroke-dasharray:none;stroke-opacity:1"
         d="m 352.426,219.5 10,3.5 -10,3.5 z" /><text
         id="text48"
         style="font-variant:normal;font-weight:normal;font-size:60px;font-family:'DejaVu Sans Mono';-inkscape-font-specification:DejaVuSansMono;writing-mode:lr-tb;fill:#90ee90;fill-opacity:1;fill-rule:nonzero;stroke:none"
         transform="translate(271.65234,205)"><tspan
           id="tspan46"
           y="0"
           x="0">л</tspan></text>
<path
         id="path50"
         style="fill:#777777;fill-opacity:1;fill-rule:nonzero;stroke:#ffffff;stroke-width:3;stroke-linecap:butt;stroke-linejoin:miter;stroke-miterlimit:10;stroke-dasharray:none;stroke-opacity:1"
         d="m 576.469,223 c 0,14.539 -11.789,26.328 -26.328,26.328 -14.539,0 -26.329,-11.789 -26.329,-26.328 0,-14.539 11.79,-26.328 26.329,-26.328 14.539,0 26.328,11.789 26.328,26.328" /><text
         id="text54"
         style="font-variant:normal;font-weight:normal;font-size:26.00024414px;font-family:'DejaVu Sans Mono';-inkscape-font-specification:DejaVuSansMono;writing-mode:lr-tb;fill:#ffffff;fill-opacity:1;fill-rule:nonzero;stroke:none"
         transform="translate(542.14062,229.30078)"><tspan
           id="tspan52"
           y="0"
           x="0">3</tspan></text>
<path
         id="path56"
         style="fill:none;stroke:#ffffff;stroke-width:3;stroke-linecap:butt;stroke-linejoin:miter;stroke-miterlimit:10;stroke-dasharray:none;stroke-opacity:1"
         d="m 415.059,223 c 26.609,0 68.734,0 98.66,0" /><path
         id="path58"
         style="fill:#ffffff;fill-opacity:1;fill-rule:nonzero;stroke:#ffffff;stroke-width:3;stroke-linecap:butt;stroke-linejoin:miter;stroke-miterlimit:10;stroke-dasharray:none;stroke-opacity:1"
         d="m 513.75,219.5 10,3.5 -10,3.5 z" /><text
         id="text62"
         style="font-variant:normal;font-weight:normal;font-size:60px;font-family:'DejaVu Sans Mono';-inkscape-font-specification:DejaVuSansMono;writing-mode:lr-tb;fill:#90ee90;fill-opacity:1;fill-rule:nonzero;stroke:none"
         transform="translate(432.97656,205)"><tspan
           id="tspan60"
           y="0"
           x="0">м</tspan></text>
<path
         id="path64"
         style="fill:#777777;fill-opacity:1;fill-rule:nonzero;stroke:#ffffff;stroke-width:3;stroke-linecap:butt;stroke-linejoin:miter;stroke-miterlimit:10;stroke-dasharray:none;stroke-opacity:1"
         d="m 737.793,223 c 0,14.539 -11.785,26.328 -26.328,26.328 -14.539,0 -26.324,-11.789 -26.324,-26.328 0,-14.539 11.785,-26.328 26.324,-26.328 14.543,0 26.328,11.789 26.328,26.328" /><text
         id="text68"
         style="font-variant:normal;font-weight:normal;font-size:26.00024414px;font-family:'DejaVu Sans Mono';-inkscape-font-specification:DejaVuSansMono;writing-mode:lr-tb;fill:#ffffff;fill-opacity:1;fill-rule:nonzero;stroke:none"
         transform="translate(703.46484,229.30078)"><tspan
           id="tspan66"
           y="0"
           x="0">4</tspan></text>
<path
         id="path70"
         style="fill:none;stroke:#ffffff;stroke-width:3;stroke-linecap:butt;stroke-linejoin:miter;stroke-miterlimit:10;stroke-dasharray:none;stroke-opacity:1"
         d="m 576.387,223 c 26.609,0 68.73,0 98.656,0" /><path
         id="path72"
         style="fill:#ffffff;fill-opacity:1;fill-rule:nonzero;stroke:#ffffff;stroke-width:3;stroke-linecap:butt;stroke-linejoin:miter;stroke-miterlimit:10;stroke-dasharray:none;stroke-opacity:1"
         d="m 675.074,219.5 10,3.5 -10,3.5 z" /><text
         id="text76"
         style="font-variant:normal;font-weight:normal;font-size:60px;font-family:'DejaVu Sans Mono';-inkscape-font-specification:DejaVuSansMono;writing-mode:lr-tb;fill:#90ee90;fill-opacity:1;fill-rule:nonzero;stroke:none"
         transform="translate(594.30469,205)"><tspan
           id="tspan74"
           y="0"
           x="0">а</tspan></text>
<path
         id="path78"
         style="fill:#777777;fill-opacity:1;fill-rule:nonzero;stroke:#ffffff;stroke-width:3;stroke-linecap:butt;stroke-linejoin:miter;stroke-miterlimit:10;stroke-dasharray:none;stroke-opacity:1"
         d="m 1617.77,221 c 0,14.539 -11.786,26.328 -26.325,26.328 -14.539,0 -26.328,-11.789 -26.328,-26.328 0,-14.539 11.789,-26.328 26.328,-26.328 14.539,0 26.325,11.789 26.325,26.328" /><text
         id="text82"
         style="font-variant:normal;font-weight:normal;font-size:26.00024414px;font-family:'DejaVu Sans Mono';-inkscape-font-specification:DejaVuSansMono;writing-mode:lr-tb;fill:#ffffff;fill-opacity:1;fill-rule:nonzero;stroke:none"
         transform="translate(1583.4453,227.30078)"><tspan
           id="tspan80"
           y="0"
           x="0">5</tspan></text>
<path
         id="path84"
         style="fill:none;stroke:#ffffff;stroke-width:3;stroke-linecap:butt;stroke-linejoin:miter;stroke-miterlimit:10;stroke-dasharray:none;stroke-opacity:1"
         d="m 731.234,205.645 c 7.106,-5.469 15.614,-10.817 24.395,-13.645 334.922,-107.809 455.09,-102.562 791.652,0 5.289,1.613 10.52,4.113 15.414,6.984" /><path
         id="path86"
         style="fill:#ffffff;fill-opacity:1;fill-rule:nonzero;stroke:#ffffff;stroke-width:3;stroke-linecap:butt;stroke-linejoin:miter;stroke-miterlimit:10;stroke-dasharray:none;stroke-opacity:1"
         d="m 1564.613,196.055 6.473,8.386 -10.293,-2.519 z" /><text
         id="text90"
         style="font-variant:normal;font-weight:normal;font-size:60px;font-family:'DejaVu Sans Mono';-inkscape-font-specification:DejaVuSansMono;writing-mode:lr-tb;fill:#90ee90;fill-opacity:1;fill-rule:nonzero;stroke:none"
         transform="translate(1078.957,96)"><tspan
           id="tspan88"
           y="0"
           x="0 36.119999 72 108.12">&lt;n&gt;:</tspan></text>
<text
         id="text94"
         style="font-variant:normal;font-weight:normal;font-size:60px;font-family:'DejaVu Sans Mono';-inkscape-font-specification:DejaVuSansMono;writing-mode:lr-tb;fill:#90ee90;fill-opacity:1;fill-rule:nonzero;stroke:none"
         transform="translate(1222.957,96)"><tspan
           id="tspan92"
           y="0"
           x="0">∅</tspan></text>
<path
         id="path96"
         style="fill:#777777;fill-opacity:1;fill-rule:nonzero;stroke:none"
         d="m 1043.121,265 c 0,14.539 -11.789,26.328 -26.328,26.328 -14.539,0 -26.328,-11.789 -26.328,-26.328 0,-14.539 11.789,-26.328 26.328,-26.328 14.539,0 26.328,11.789 26.328,26.328" /><path
         id="path98"
         style="fill:none;stroke:#ffffff;stroke-width:3;stroke-linecap:butt;stroke-linejoin:miter;stroke-miterlimit:10;stroke-dasharray:none;stroke-opacity:1"
         d="m 1043.121,265 c 0,14.539 -11.789,26.328 -26.328,26.328 -14.539,0 -26.328,-11.789 -26.328,-26.328 0,-14.539 11.789,-26.328 26.328,-26.328 14.539,0 26.328,11.789 26.328,26.328" /><text
         id="text102"
         style="font-variant:normal;font-weight:normal;font-size:26.00024414px;font-family:'DejaVu Sans Mono';-inkscape-font-specification:DejaVuSansMono;writing-mode:lr-tb;fill:#ffffff;fill-opacity:1;fill-rule:nonzero;stroke:none"
         transform="translate(1008.793,271.30078)"><tspan
           id="tspan100"
           y="0"
           x="0">6</tspan></text>
<path
         id="path104"
         style="fill:none;stroke:#ffffff;stroke-width:3;stroke-linecap:butt;stroke-linejoin:miter;stroke-miterlimit:10;stroke-dasharray:none;stroke-opacity:1"
         d="m 730.094,241.684 c 7.238,6.41 16.125,12.836 25.535,16.316 76.324,28.219 174.016,20.199 225.238,12.961" /><path
         id="path106"
         style="fill:#ffffff;fill-opacity:1;fill-rule:nonzero;stroke:none"
         d="m 980.363,267.496 10.407,1.992 -9.375,4.934 z" /><path
         id="path108"
         style="fill:none;stroke:#ffffff;stroke-width:3;stroke-linecap:butt;stroke-linejoin:miter;stroke-miterlimit:10;stroke-dasharray:none;stroke-opacity:1"
         d="m 980.363,267.496 10.407,1.992 -9.375,4.934 z" /><text
         id="text112"
         style="font-variant:normal;font-weight:normal;font-size:60px;font-family:'DejaVu Sans Mono';-inkscape-font-specification:DejaVuSansMono;writing-mode:lr-tb;fill:#90ee90;fill-opacity:1;fill-rule:nonzero;stroke:none"
         transform="translate(755.62891,240)"><tspan
           id="tspan110"
           y="0"
           x="0 36.119999 72 108.12">&lt;n&gt;:</tspan></text>
<text
         id="text116"
         style="font-variant:normal;font-weight:normal;font-size:60px;font-family:'DejaVu Sans Mono';-inkscape-font-specification:DejaVuSansMono;writing-mode:lr-tb;fill:#90ee90;fill-opacity:1;fill-rule:nonzero;stroke:none"
         transform="translate(899.62891,240)"><tspan
           id="tspan114"
           y="0"
           x="0">л</tspan></text>
<path
         id="path118"
         style="fill:#777777;fill-opacity:1;fill-rule:nonzero;stroke:none"
         d="m 2625.285,221 c 0,14.527 -11.777,26.305 -26.308,26.305 -14.528,0 -26.305,-11.778 -26.305,-26.305 0,-14.527 11.777,-26.305 26.305,-26.305 14.531,0 26.308,11.778 26.308,26.305" /><path
         id="path120"
         style="fill:none;stroke:#ffffff;stroke-width:3;stroke-linecap:butt;stroke-linejoin:miter;stroke-miterlimit:10;stroke-dasharray:none;stroke-opacity:1"
         d="m 2625.285,221 c 0,14.527 -11.777,26.305 -26.308,26.305 -14.528,0 -26.305,-11.778 -26.305,-26.305 0,-14.527 11.777,-26.305 26.305,-26.305 14.531,0 26.308,11.778 26.308,26.305" /><path
         id="path122"
         style="fill:none;stroke:#ffffff;stroke-width:3;stroke-linecap:butt;stroke-linejoin:miter;stroke-miterlimit:10;stroke-dasharray:none;stroke-opacity:1"
         d="m 2629.305,221 c 0,16.75 -13.578,30.328 -30.328,30.328 -16.747,0 -30.325,-13.578 -30.325,-30.328 0,-16.75 13.578,-30.328 30.325,-30.328 16.75,0 30.328,13.578 30.328,30.328" /><text
         id="text126"
         style="font-variant:normal;font-weight:normal;font-size:26.00024414px;font-family:'DejaVu Sans Mono';-inkscape-font-specification:DejaVuSansMono;writing-mode:lr-tb;fill:#ffffff;fill-opacity:1;fill-rule:nonzero;stroke:none"
         transform="translate(2590.9766,227.30078)"><tspan
           id="tspan124"
           y="0"
           x="0">7</tspan></text>
<path
         id="path128"
         style="fill:none;stroke:#ffffff;stroke-width:3;stroke-linecap:butt;stroke-linejoin:miter;stroke-miterlimit:10;stroke-dasharray:none;stroke-opacity:1"
         d="m 1611.805,204.441 c 7.031,-5.007 15.34,-9.863 23.8,-12.441 389.094,-118.57 523.805,-110.707 915.211,0 4.957,1.402 9.911,3.492 14.641,5.914" /><path
         id="path130"
         style="fill:#ffffff;fill-opacity:1;fill-rule:nonzero;stroke:#ffffff;stroke-width:3;stroke-linecap:butt;stroke-linejoin:miter;stroke-miterlimit:10;stroke-dasharray:none;stroke-opacity:1"
         d="m 2567.258,194.914 6.961,7.984 -10.422,-1.902 z" /><text
         id="text134"
         style="font-variant:normal;font-weight:normal;font-size:60px;font-family:'DejaVu Sans Mono';-inkscape-font-specification:DejaVuSansMono;writing-mode:lr-tb;fill:#90ee90;fill-opacity:1;fill-rule:nonzero;stroke:none"
         transform="translate(2012.9336,88)"><tspan
           id="tspan132"
           y="0"
           x="0 36.119999 72 108.12 144 180.12">&lt;nom&gt;:</tspan></text>
<text
         id="text138"
         style="font-variant:normal;font-weight:normal;font-size:60px;font-family:'DejaVu Sans Mono';-inkscape-font-specification:DejaVuSansMono;writing-mode:lr-tb;fill:#90ee90;fill-opacity:1;fill-rule:nonzero;stroke:none"
         transform="translate(2228.9336,88)"><tspan
           id="tspan136"
           y="0"
           x="0">∅</tspan></text>
<path
         id="path140"
         style="fill:#777777;fill-opacity:1;fill-rule:nonzero;stroke:none"
         d="m 1995.098,263 c 0,14.539 -11.789,26.328 -26.328,26.328 -14.54,0 -26.329,-11.789 -26.329,-26.328 0,-14.539 11.789,-26.328 26.329,-26.328 14.539,0 26.328,11.789 26.328,26.328" /><path
         id="path142"
         style="fill:none;stroke:#ffffff;stroke-width:3;stroke-linecap:butt;stroke-linejoin:miter;stroke-miterlimit:10;stroke-dasharray:none;stroke-opacity:1"
         d="m 1995.098,263 c 0,14.539 -11.789,26.328 -26.328,26.328 -14.54,0 -26.329,-11.789 -26.329,-26.328 0,-14.539 11.789,-26.328 26.329,-26.328 14.539,0 26.328,11.789 26.328,26.328" /><text
         id="text146"
         style="font-variant:normal;font-weight:normal;font-size:26.00024414px;font-family:'DejaVu Sans Mono';-inkscape-font-specification:DejaVuSansMono;writing-mode:lr-tb;fill:#ffffff;fill-opacity:1;fill-rule:nonzero;stroke:none"
         transform="translate(1960.7695,269.30078)"><tspan
           id="tspan144"
           y="0"
           x="0">8</tspan></text>
<path
         id="path148"
         style="fill:none;stroke:#ffffff;stroke-width:3;stroke-linecap:butt;stroke-linejoin:miter;stroke-miterlimit:10;stroke-dasharray:none;stroke-opacity:1"
         d="m 1609.457,240.406 c 7.285,6.91 16.367,13.891 26.148,17.594 102.235,38.699 235.161,22.836 297.293,11.988" /><path
         id="path150"
         style="fill:#ffffff;fill-opacity:1;fill-rule:nonzero;stroke:none"
         d="m 1932.488,266.508 10.465,1.66 -9.219,5.227 z" /><path
         id="path152"
         style="fill:none;stroke:#ffffff;stroke-width:3;stroke-linecap:butt;stroke-linejoin:miter;stroke-miterlimit:10;stroke-dasharray:none;stroke-opacity:1"
         d="m 1932.488,266.508 10.465,1.66 -9.219,5.227 z" /><text
         id="text156"
         style="font-variant:normal;font-weight:normal;font-size:60px;font-family:'DejaVu Sans Mono';-inkscape-font-specification:DejaVuSansMono;writing-mode:lr-tb;fill:#90ee90;fill-opacity:1;fill-rule:nonzero;stroke:none"
         transform="translate(1635.6055,240)"><tspan
           id="tspan154"
           y="0"
           x="0 36.119999 72 108.12 144 180.12">&lt;abl&gt;:</tspan></text>
<text
         id="text160"
         style="font-variant:normal;font-weight:normal;font-size:60px;font-family:'DejaVu Sans Mono';-inkscape-font-specification:DejaVuSansMono;writing-mode:lr-tb;fill:#90ee90;fill-opacity:1;fill-rule:nonzero;stroke:none"
         transform="translate(1851.6055,240)"><tspan
           id="tspan158"
           y="0"
           x="0">д</tspan></text>
<path
         id="path162"
         style="fill:#777777;fill-opacity:1;fill-rule:nonzero;stroke:none"
         d="m 1384.445,265 c 0,14.539 -11.785,26.328 -26.328,26.328 -14.539,0 -26.324,-11.789 -26.324,-26.328 0,-14.539 11.785,-26.328 26.324,-26.328 14.543,0 26.328,11.789 26.328,26.328" /><path
         id="path164"
         style="fill:none;stroke:#ffffff;stroke-width:3;stroke-linecap:butt;stroke-linejoin:miter;stroke-miterlimit:10;stroke-dasharray:none;stroke-opacity:1"
         d="m 1384.445,265 c 0,14.539 -11.785,26.328 -26.328,26.328 -14.539,0 -26.324,-11.789 -26.324,-26.328 0,-14.539 11.785,-26.328 26.324,-26.328 14.543,0 26.328,11.789 26.328,26.328" /><text
         id="text168"
         style="font-variant:normal;font-weight:normal;font-size:26.00024414px;font-family:'DejaVu Sans Mono';-inkscape-font-specification:DejaVuSansMono;writing-mode:lr-tb;fill:#ffffff;fill-opacity:1;fill-rule:nonzero;stroke:none"
         transform="translate(1350.1172,271.30078)"><tspan
           id="tspan166"
           y="0"
           x="0">9</tspan></text>
<path
         id="path170"
         style="fill:none;stroke:#ffffff;stroke-width:3;stroke-linecap:butt;stroke-linejoin:miter;stroke-miterlimit:10;stroke-dasharray:none;stroke-opacity:1"
         d="m 1043.352,265.691 c 5.789,0.129 11.906,0.243 17.605,0.309 112.434,1.301 140.563,1.301 253,0 2.402,-0.027 4.879,-0.062 7.375,-0.105" /><path
         id="path172"
         style="fill:#ffffff;fill-opacity:1;fill-rule:nonzero;stroke:none"
         d="m 1321.488,262.391 10.071,3.3 -9.93,3.696 z" /><path
         id="path174"
         style="fill:none;stroke:#ffffff;stroke-width:3;stroke-linecap:butt;stroke-linejoin:miter;stroke-miterlimit:10;stroke-dasharray:none;stroke-opacity:1"
         d="m 1321.488,262.391 10.071,3.3 -9.93,3.696 z" /><text
         id="text178"
         style="font-variant:normal;font-weight:normal;font-size:60px;font-family:'DejaVu Sans Mono';-inkscape-font-specification:DejaVuSansMono;writing-mode:lr-tb;fill:#90ee90;fill-opacity:1;fill-rule:nonzero;stroke:none"
         transform="translate(1060.957,248)"><tspan
           id="tspan176"
           y="0"
           x="0 36.119999 72 108.12 144">&lt;pl&gt;:</tspan></text>
<text
         id="text182"
         style="font-variant:normal;font-weight:normal;font-size:60px;font-family:'DejaVu Sans Mono';-inkscape-font-specification:DejaVuSansMono;writing-mode:lr-tb;fill:#90ee90;fill-opacity:1;fill-rule:nonzero;stroke:none"
         transform="translate(1241.077,248)"><tspan
           id="tspan180"
           y="0"
           x="0">а</tspan></text>
<path
         id="path184"
         style="fill:#777777;fill-opacity:1;fill-rule:nonzero;stroke:none"
         d="m 2387.758,265 c 0,18.711 -15.172,33.883 -33.883,33.883 -18.715,0 -33.883,-15.172 -33.883,-33.883 0,-18.711 15.168,-33.883 33.883,-33.883 18.711,0 33.883,15.172 33.883,33.883" /><path
         id="path186"
         style="fill:none;stroke:#ffffff;stroke-width:3;stroke-linecap:butt;stroke-linejoin:miter;stroke-miterlimit:10;stroke-dasharray:none;stroke-opacity:1"
         d="m 2387.758,265 c 0,18.711 -15.172,33.883 -33.883,33.883 -18.715,0 -33.883,-15.172 -33.883,-33.883 0,-18.711 15.168,-33.883 33.883,-33.883 18.711,0 33.883,15.172 33.883,33.883" /><text
         id="text190"
         style="font-variant:normal;font-weight:normal;font-size:26.00024414px;font-family:'DejaVu Sans Mono';-inkscape-font-specification:DejaVuSansMono;writing-mode:lr-tb;fill:#ffffff;fill-opacity:1;fill-rule:nonzero;stroke:none"
         transform="translate(2337.875,271.30078)"><tspan
           id="tspan188"
           y="0"
           x="0 15.756147">10</tspan></text>
<path
         id="path192"
         style="fill:none;stroke:#ffffff;stroke-width:3;stroke-linecap:butt;stroke-linejoin:miter;stroke-miterlimit:10;stroke-dasharray:none;stroke-opacity:1"
         d="m 1994.859,265.039 c 5.926,0.399 12.219,0.758 18.075,0.961 128.367,4.457 160.562,1.262 289,0 2.515,-0.023 5.101,-0.055 7.707,-0.094" /><path
         id="path194"
         style="fill:#ffffff;fill-opacity:1;fill-rule:nonzero;stroke:none"
         d="m 2309.664,262.406 10.055,3.34 -9.942,3.66 z" /><path
         id="path196"
         style="fill:none;stroke:#ffffff;stroke-width:3;stroke-linecap:butt;stroke-linejoin:miter;stroke-miterlimit:10;stroke-dasharray:none;stroke-opacity:1"
         d="m 2309.664,262.406 10.055,3.34 -9.942,3.66 z" /><text
         id="text200"
         style="font-variant:normal;font-weight:normal;font-size:60px;font-family:'DejaVu Sans Mono';-inkscape-font-specification:DejaVuSansMono;writing-mode:lr-tb;fill:#90ee90;fill-opacity:1;fill-rule:nonzero;stroke:none"
         transform="translate(2084.9336,248)"><tspan
           id="tspan198"
           y="0"
           x="0">∅</tspan></text>
<text
         id="text204"
         style="font-variant:normal;font-weight:normal;font-size:60px;font-family:'DejaVu Sans Mono';-inkscape-font-specification:DejaVuSansMono;writing-mode:lr-tb;fill:#90ee90;fill-opacity:1;fill-rule:nonzero;stroke:none"
         transform="translate(2121.0536,248)"><tspan
           id="tspan202"
           y="0"
           x="0">:</tspan></text>
<text
         id="text208"
         style="font-variant:normal;font-weight:normal;font-size:60px;font-family:'DejaVu Sans Mono';-inkscape-font-specification:DejaVuSansMono;writing-mode:lr-tb;fill:#90ee90;fill-opacity:1;fill-rule:nonzero;stroke:none"
         transform="translate(2156.9336,248)"><tspan
           id="tspan206"
           y="0"
           x="0">а</tspan></text>
<path
         id="path210"
         style="fill:none;stroke:#ffffff;stroke-width:3;stroke-linecap:butt;stroke-linejoin:miter;stroke-miterlimit:10;stroke-dasharray:none;stroke-opacity:1"
         d="m 1384.227,269.141 c 37.101,5.019 108.105,10.359 163.054,-11.141 6.547,-2.562 12.789,-6.562 18.395,-11" /><path
         id="path212"
         style="fill:#ffffff;fill-opacity:1;fill-rule:nonzero;stroke:#ffffff;stroke-width:3;stroke-linecap:butt;stroke-linejoin:miter;stroke-miterlimit:10;stroke-dasharray:none;stroke-opacity:1"
         d="m 1563.543,244.215 9.844,-3.918 -5.25,9.199 z" /><text
         id="text216"
         style="font-variant:normal;font-weight:normal;font-size:60px;font-family:'DejaVu Sans Mono';-inkscape-font-specification:DejaVuSansMono;writing-mode:lr-tb;fill:#90ee90;fill-opacity:1;fill-rule:nonzero;stroke:none"
         transform="translate(1402.2813,240)"><tspan
           id="tspan214"
           y="0"
           x="0">∅</tspan></text>
<text
         id="text220"
         style="font-variant:normal;font-weight:normal;font-size:60px;font-family:'DejaVu Sans Mono';-inkscape-font-specification:DejaVuSansMono;writing-mode:lr-tb;fill:#90ee90;fill-opacity:1;fill-rule:nonzero;stroke:none"
         transform="translate(1438.4012,240)"><tspan
           id="tspan218"
           y="0"
           x="0">:</tspan></text>
<text
         id="text224"
         style="font-variant:normal;font-weight:normal;font-size:60px;font-family:'DejaVu Sans Mono';-inkscape-font-specification:DejaVuSansMono;writing-mode:lr-tb;fill:#90ee90;fill-opacity:1;fill-rule:nonzero;stroke:none"
         transform="translate(1474.2812,240)"><tspan
           id="tspan222"
           y="0"
           x="0">р</tspan></text>
<path
         id="path226"
         style="fill:none;stroke:#ffffff;stroke-width:3;stroke-linecap:butt;stroke-linejoin:miter;stroke-miterlimit:10;stroke-dasharray:none;stroke-opacity:1"
         d="m 2387.602,269.848 c 39.886,4.566 108.703,8.078 163.214,-11.848 6.434,-2.352 12.68,-5.941 18.407,-9.977" /><path
         id="path228"
         style="fill:#ffffff;fill-opacity:1;fill-rule:nonzero;stroke:#ffffff;stroke-width:3;stroke-linecap:butt;stroke-linejoin:miter;stroke-miterlimit:10;stroke-dasharray:none;stroke-opacity:1"
         d="m 2567.145,245.207 10.058,-3.324 -5.793,8.871 z" /><text
         id="text232"
         style="font-variant:normal;font-weight:normal;font-size:60px;font-family:'DejaVu Sans Mono';-inkscape-font-specification:DejaVuSansMono;writing-mode:lr-tb;fill:#90ee90;fill-opacity:1;fill-rule:nonzero;stroke:none"
         transform="translate(2405.8164,240)"><tspan
           id="tspan230"
           y="0"
           x="0">∅</tspan></text>
<text
         id="text236"
         style="font-variant:normal;font-weight:normal;font-size:60px;font-family:'DejaVu Sans Mono';-inkscape-font-specification:DejaVuSansMono;writing-mode:lr-tb;fill:#90ee90;fill-opacity:1;fill-rule:nonzero;stroke:none"
         transform="translate(2441.9364,240)"><tspan
           id="tspan234"
           y="0"
           x="0">:</tspan></text>
<text
         id="text240"
         style="font-variant:normal;font-weight:normal;font-size:60px;font-family:'DejaVu Sans Mono';-inkscape-font-specification:DejaVuSansMono;writing-mode:lr-tb;fill:#90ee90;fill-opacity:1;fill-rule:nonzero;stroke:none"
         transform="translate(2477.8164,240)"><tspan
           id="tspan238"
           y="0"
           x="0">н</tspan></text>
</g></g></svg>