<?xml version="1.0" encoding="UTF-8" standalone="no"?>
<svg
   xmlns:dc="http://purl.org/dc/elements/1.1/"
   xmlns:cc="http://creativecommons.org/ns#"
   xmlns:rdf="http://www.w3.org/1999/02/22-rdf-syntax-ns#"
   xmlns:svg="http://www.w3.org/2000/svg"
   xmlns="http://www.w3.org/2000/svg"
   viewBox="0 0 2700 317.33334"
   height="317.33334"
   width="2700"
   xml:space="preserve"
   id="svg2"
   version="1.1"><metadata
     id="metadata8"><rdf:RDF><cc:Work
         rdf:about=""><dc:format>image/svg+xml</dc:format><dc:type
           rdf:resource="http://purl.org/dc/dcmitype/StillImage" /></cc:Work></rdf:RDF></metadata><defs
     id="defs6" /><g
     transform="matrix(1.3333333,0,0,1.3333333,0,4.6e-6)"
     id="g10"><g
       id="g12"><path
         id="path14"
         style="fill:#a9a9a9;fill-opacity:1;fill-rule:nonzero;stroke:none"
         d="m 92.488,134 c 0,14.539 -11.785,26.328 -26.324,26.328 -14.543,0 -26.328,-11.789 -26.328,-26.328 0,-14.539 11.785,-26.328 26.328,-26.328 14.539,0 26.324,11.789 26.324,26.328" /><path
         id="path16"
         style="fill:none;stroke:#ffffff;stroke-width:3;stroke-linecap:butt;stroke-linejoin:miter;stroke-miterlimit:10;stroke-dasharray:none;stroke-opacity:1"
         d="m 92.488,134 c 0,14.539 -11.785,26.328 -26.324,26.328 -14.543,0 -26.328,-11.789 -26.328,-26.328 0,-14.539 11.785,-26.328 26.328,-26.328 14.539,0 26.324,11.789 26.324,26.328" /><text
         id="text20"
         style="font-variant:normal;font-weight:normal;font-size:26.00024414px;font-family:'DejaVu Sans Mono';-inkscape-font-specification:DejaVuSansMono;writing-mode:lr-tb;fill:#ffffff;fill-opacity:1;fill-rule:nonzero;stroke:none"
         transform="translate(58.164062,140.30078)"><tspan
           id="tspan18"
           y="0"
           x="0">0</tspan></text>
<path
         id="path22"
         style="fill:#a9a9a9;fill-opacity:1;fill-rule:nonzero;stroke:none"
         d="m 224.816,134 c 0,14.539 -11.789,26.328 -26.328,26.328 -14.539,0 -26.328,-11.789 -26.328,-26.328 0,-14.539 11.789,-26.328 26.328,-26.328 14.539,0 26.328,11.789 26.328,26.328" /><path
         id="path24"
         style="fill:none;stroke:#ffffff;stroke-width:3;stroke-linecap:butt;stroke-linejoin:miter;stroke-miterlimit:10;stroke-dasharray:none;stroke-opacity:1"
         d="m 224.816,134 c 0,14.539 -11.789,26.328 -26.328,26.328 -14.539,0 -26.328,-11.789 -26.328,-26.328 0,-14.539 11.789,-26.328 26.328,-26.328 14.539,0 26.328,11.789 26.328,26.328" /><text
         id="text28"
         style="font-variant:normal;font-weight:normal;font-size:26.00024414px;font-family:'DejaVu Sans Mono';-inkscape-font-specification:DejaVuSansMono;writing-mode:lr-tb;fill:#ffffff;fill-opacity:1;fill-rule:nonzero;stroke:none"
         transform="translate(190.48828,140.30078)"><tspan
           id="tspan26"
           y="0"
           x="0">1</tspan></text>
<path
         id="path30"
         style="fill:none;stroke:#ffffff;stroke-width:3;stroke-linecap:butt;stroke-linejoin:miter;stroke-miterlimit:10;stroke-dasharray:none;stroke-opacity:1"
         d="m 92.602,134 c 19.734,0 47.328,0 69.261,0" /><path
         id="path32"
         style="fill:#ffffff;fill-opacity:1;fill-rule:nonzero;stroke:#ffffff;stroke-width:3;stroke-linecap:butt;stroke-linejoin:miter;stroke-miterlimit:10;stroke-dasharray:none;stroke-opacity:1"
         d="m 162.117,130.5 10,3.5 -10,3.5 z" /><text
         id="text36"
         style="font-variant:normal;font-weight:normal;font-size:36px;font-family:'DejaVu Sans Mono';-inkscape-font-specification:DejaVuSansMono;writing-mode:lr-tb;fill:#ffffff;fill-opacity:1;fill-rule:nonzero;stroke:none"
         transform="translate(110.32422,122.80078)"><tspan
           id="tspan34"
           y="0"
           x="0">а</tspan></text>
<path
         id="path38"
         style="fill:#a9a9a9;fill-opacity:1;fill-rule:nonzero;stroke:none"
         d="m 357.141,134 c 0,14.539 -11.786,26.328 -26.325,26.328 -14.543,0 -26.328,-11.789 -26.328,-26.328 0,-14.539 11.785,-26.328 26.328,-26.328 14.539,0 26.325,11.789 26.325,26.328" /><path
         id="path40"
         style="fill:none;stroke:#ffffff;stroke-width:3;stroke-linecap:butt;stroke-linejoin:miter;stroke-miterlimit:10;stroke-dasharray:none;stroke-opacity:1"
         d="m 357.141,134 c 0,14.539 -11.786,26.328 -26.325,26.328 -14.543,0 -26.328,-11.789 -26.328,-26.328 0,-14.539 11.785,-26.328 26.328,-26.328 14.539,0 26.325,11.789 26.325,26.328" /><text
         id="text44"
         style="font-variant:normal;font-weight:normal;font-size:26.00024414px;font-family:'DejaVu Sans Mono';-inkscape-font-specification:DejaVuSansMono;writing-mode:lr-tb;fill:#ffffff;fill-opacity:1;fill-rule:nonzero;stroke:none"
         transform="translate(322.81641,140.30078)"><tspan
           id="tspan42"
           y="0"
           x="0">2</tspan></text>
<path
         id="path46"
         style="fill:none;stroke:#ffffff;stroke-width:3;stroke-linecap:butt;stroke-linejoin:miter;stroke-miterlimit:10;stroke-dasharray:none;stroke-opacity:1"
         d="m 224.926,134 c 19.734,0 47.332,0 69.262,0" /><path
         id="path48"
         style="fill:#ffffff;fill-opacity:1;fill-rule:nonzero;stroke:#ffffff;stroke-width:3;stroke-linecap:butt;stroke-linejoin:miter;stroke-miterlimit:10;stroke-dasharray:none;stroke-opacity:1"
         d="m 294.441,130.5 10,3.5 -10,3.5 z" /><text
         id="text52"
         style="font-variant:normal;font-weight:normal;font-size:36px;font-family:'DejaVu Sans Mono';-inkscape-font-specification:DejaVuSansMono;writing-mode:lr-tb;fill:#ffffff;fill-opacity:1;fill-rule:nonzero;stroke:none"
         transform="translate(242.65234,122.80078)"><tspan
           id="tspan50"
           y="0"
           x="0">л</tspan></text>
<path
         id="path54"
         style="fill:#a9a9a9;fill-opacity:1;fill-rule:nonzero;stroke:none"
         d="m 489.469,134 c 0,14.539 -11.789,26.328 -26.328,26.328 -14.539,0 -26.329,-11.789 -26.329,-26.328 0,-14.539 11.79,-26.328 26.329,-26.328 14.539,0 26.328,11.789 26.328,26.328" /><path
         id="path56"
         style="fill:none;stroke:#ffffff;stroke-width:3;stroke-linecap:butt;stroke-linejoin:miter;stroke-miterlimit:10;stroke-dasharray:none;stroke-opacity:1"
         d="m 489.469,134 c 0,14.539 -11.789,26.328 -26.328,26.328 -14.539,0 -26.329,-11.789 -26.329,-26.328 0,-14.539 11.79,-26.328 26.329,-26.328 14.539,0 26.328,11.789 26.328,26.328" /><text
         id="text60"
         style="font-variant:normal;font-weight:normal;font-size:26.00024414px;font-family:'DejaVu Sans Mono';-inkscape-font-specification:DejaVuSansMono;writing-mode:lr-tb;fill:#ffffff;fill-opacity:1;fill-rule:nonzero;stroke:none"
         transform="translate(455.14063,140.30078)"><tspan
           id="tspan58"
           y="0"
           x="0">3</tspan></text>
<path
         id="path62"
         style="fill:none;stroke:#ffffff;stroke-width:3;stroke-linecap:butt;stroke-linejoin:miter;stroke-miterlimit:10;stroke-dasharray:none;stroke-opacity:1"
         d="m 357.254,134 c 19.734,0 47.328,0 69.262,0" /><path
         id="path64"
         style="fill:#ffffff;fill-opacity:1;fill-rule:nonzero;stroke:#ffffff;stroke-width:3;stroke-linecap:butt;stroke-linejoin:miter;stroke-miterlimit:10;stroke-dasharray:none;stroke-opacity:1"
         d="m 426.766,130.5 10,3.5 -10,3.5 z" /><text
         id="text68"
         style="font-variant:normal;font-weight:normal;font-size:36px;font-family:'DejaVu Sans Mono';-inkscape-font-specification:DejaVuSansMono;writing-mode:lr-tb;fill:#ffffff;fill-opacity:1;fill-rule:nonzero;stroke:none"
         transform="translate(374.97656,122.80078)"><tspan
           id="tspan66"
           y="0"
           x="0">м</tspan></text>
<path
         id="path70"
         style="fill:#a9a9a9;fill-opacity:1;fill-rule:nonzero;stroke:none"
         d="m 621.793,134 c 0,14.539 -11.785,26.328 -26.328,26.328 -14.539,0 -26.324,-11.789 -26.324,-26.328 0,-14.539 11.785,-26.328 26.324,-26.328 14.543,0 26.328,11.789 26.328,26.328" /><path
         id="path72"
         style="fill:none;stroke:#ffffff;stroke-width:3;stroke-linecap:butt;stroke-linejoin:miter;stroke-miterlimit:10;stroke-dasharray:none;stroke-opacity:1"
         d="m 621.793,134 c 0,14.539 -11.785,26.328 -26.328,26.328 -14.539,0 -26.324,-11.789 -26.324,-26.328 0,-14.539 11.785,-26.328 26.324,-26.328 14.543,0 26.328,11.789 26.328,26.328" /><text
         id="text76"
         style="font-variant:normal;font-weight:normal;font-size:26.00024414px;font-family:'DejaVu Sans Mono';-inkscape-font-specification:DejaVuSansMono;writing-mode:lr-tb;fill:#ffffff;fill-opacity:1;fill-rule:nonzero;stroke:none"
         transform="translate(587.46484,140.30078)"><tspan
           id="tspan74"
           y="0"
           x="0">4</tspan></text>
<path
         id="path78"
         style="fill:none;stroke:#ffffff;stroke-width:3;stroke-linecap:butt;stroke-linejoin:miter;stroke-miterlimit:10;stroke-dasharray:none;stroke-opacity:1"
         d="m 489.578,134 c 19.734,0 47.328,0 69.262,0" /><path
         id="path80"
         style="fill:#ffffff;fill-opacity:1;fill-rule:nonzero;stroke:#ffffff;stroke-width:3;stroke-linecap:butt;stroke-linejoin:miter;stroke-miterlimit:10;stroke-dasharray:none;stroke-opacity:1"
         d="m 559.094,130.5 10,3.5 -10,3.5 z" /><text
         id="text84"
         style="font-variant:normal;font-weight:normal;font-size:36px;font-family:'DejaVu Sans Mono';-inkscape-font-specification:DejaVuSansMono;writing-mode:lr-tb;fill:#ffffff;fill-opacity:1;fill-rule:nonzero;stroke:none"
         transform="translate(507.30469,122.80078)"><tspan
           id="tspan82"
           y="0"
           x="0">а</tspan></text>
<path
         id="path86"
         style="fill:#a9a9a9;fill-opacity:1;fill-rule:nonzero;stroke:#ffffff;stroke-width:3;stroke-linecap:butt;stroke-linejoin:miter;stroke-miterlimit:10;stroke-dasharray:none;stroke-opacity:1"
         d="m 1258.77,132 c 0,14.539 -11.786,26.328 -26.325,26.328 -14.539,0 -26.328,-11.789 -26.328,-26.328 0,-14.539 11.789,-26.328 26.328,-26.328 14.539,0 26.325,11.789 26.325,26.328" /><text
         id="text90"
         style="font-variant:normal;font-weight:normal;font-size:26.00024414px;font-family:'DejaVu Sans Mono';-inkscape-font-specification:DejaVuSansMono;writing-mode:lr-tb;fill:#ffffff;fill-opacity:1;fill-rule:nonzero;stroke:none"
         transform="translate(1224.4453,138.30078)"><tspan
           id="tspan88"
           y="0"
           x="0">5</tspan></text>
<path
         id="path92"
         style="fill:none;stroke:#ffffff;stroke-width:3;stroke-linecap:butt;stroke-linejoin:miter;stroke-miterlimit:10;stroke-dasharray:none;stroke-opacity:1"
         d="m 619.23,122.543 c 6.434,-2.691 13.551,-5.172 20.399,-6.543 239.101,-47.859 308.637,-43.055 548.652,0 3.407,0.609 6.899,1.473 10.344,2.484" /><path
         id="path94"
         style="fill:#ffffff;fill-opacity:1;fill-rule:nonzero;stroke:#ffffff;stroke-width:3;stroke-linecap:butt;stroke-linejoin:miter;stroke-miterlimit:10;stroke-dasharray:none;stroke-opacity:1"
         d="m 1199.738,115.164 8.383,6.481 -10.594,0.164 z" /><text
         id="text98"
         style="font-variant:normal;font-weight:normal;font-size:36px;font-family:'DejaVu Sans Mono';-inkscape-font-specification:DejaVuSansMono;writing-mode:lr-tb;fill:#ffffff;fill-opacity:1;fill-rule:nonzero;stroke:none"
         transform="translate(869.95703,70.800781)"><tspan
           id="tspan96"
           y="0"
           x="0 21.672001 43.487999 65.160004">&lt;n&gt;:</tspan></text>
<text
         id="text102"
         style="font-variant:normal;font-weight:normal;font-size:36px;font-family:'DejaVu Sans Mono';-inkscape-font-specification:DejaVuSansMono;writing-mode:lr-tb;fill:#ffffff;fill-opacity:1;fill-rule:nonzero;stroke:none"
         transform="translate(956.93303,70.800781)"><tspan
           id="tspan100"
           y="0"
           x="0">∅</tspan></text>
<path
         id="path104"
         style="fill:#a9a9a9;fill-opacity:1;fill-rule:nonzero;stroke:none"
         d="m 841.121,163 c 0,14.539 -11.789,26.328 -26.328,26.328 -14.539,0 -26.328,-11.789 -26.328,-26.328 0,-14.539 11.789,-26.328 26.328,-26.328 14.539,0 26.328,11.789 26.328,26.328" /><path
         id="path106"
         style="fill:none;stroke:#ffffff;stroke-width:3;stroke-linecap:butt;stroke-linejoin:miter;stroke-miterlimit:10;stroke-dasharray:none;stroke-opacity:1"
         d="m 841.121,163 c 0,14.539 -11.789,26.328 -26.328,26.328 -14.539,0 -26.328,-11.789 -26.328,-26.328 0,-14.539 11.789,-26.328 26.328,-26.328 14.539,0 26.328,11.789 26.328,26.328" /><text
         id="text110"
         style="font-variant:normal;font-weight:normal;font-size:26.00024414px;font-family:'DejaVu Sans Mono';-inkscape-font-specification:DejaVuSansMono;writing-mode:lr-tb;fill:#ffffff;fill-opacity:1;fill-rule:nonzero;stroke:none"
         transform="translate(806.79297,169.30078)"><tspan
           id="tspan108"
           y="0"
           x="0">6</tspan></text>
<path
         id="path112"
         style="fill:none;stroke:#ffffff;stroke-width:3;stroke-linecap:butt;stroke-linejoin:miter;stroke-miterlimit:10;stroke-dasharray:none;stroke-opacity:1"
         d="m 618.137,147.34 c 6.66,3.457 14.168,6.746 21.492,8.66 46.695,12.211 102.812,11.922 138.484,9.973" /><path
         id="path114"
         style="fill:#ffffff;fill-opacity:1;fill-rule:nonzero;stroke:none"
         d="m 778.297,162.453 10.195,2.871 -9.762,4.117 z" /><path
         id="path116"
         style="fill:none;stroke:#ffffff;stroke-width:3;stroke-linecap:butt;stroke-linejoin:miter;stroke-miterlimit:10;stroke-dasharray:none;stroke-opacity:1"
         d="m 778.297,162.453 10.195,2.871 -9.762,4.117 z" /><text
         id="text120"
         style="font-variant:normal;font-weight:normal;font-size:36px;font-family:'DejaVu Sans Mono';-inkscape-font-specification:DejaVuSansMono;writing-mode:lr-tb;fill:#ffffff;fill-opacity:1;fill-rule:nonzero;stroke:none"
         transform="translate(639.62891,144.80078)"><tspan
           id="tspan118"
           y="0"
           x="0 21.672001 43.487999 65.160004">&lt;n&gt;:</tspan></text>
<text
         id="text124"
         style="font-variant:normal;font-weight:normal;font-size:36px;font-family:'DejaVu Sans Mono';-inkscape-font-specification:DejaVuSansMono;writing-mode:lr-tb;fill:#ffffff;fill-opacity:1;fill-rule:nonzero;stroke:none"
         transform="translate(726.60491,144.80078)"><tspan
           id="tspan122"
           y="0"
           x="0">л</tspan></text>
<path
         id="path126"
         style="fill:#a9a9a9;fill-opacity:1;fill-rule:nonzero;stroke:none"
         d="m 1981.285,133 c 0,14.527 -11.777,26.305 -26.308,26.305 -14.528,0 -26.305,-11.778 -26.305,-26.305 0,-14.527 11.777,-26.305 26.305,-26.305 14.531,0 26.308,11.778 26.308,26.305" /><path
         id="path128"
         style="fill:none;stroke:#ffffff;stroke-width:3;stroke-linecap:butt;stroke-linejoin:miter;stroke-miterlimit:10;stroke-dasharray:none;stroke-opacity:1"
         d="m 1981.285,133 c 0,14.527 -11.777,26.305 -26.308,26.305 -14.528,0 -26.305,-11.778 -26.305,-26.305 0,-14.527 11.777,-26.305 26.305,-26.305 14.531,0 26.308,11.778 26.308,26.305" /><path
         id="path130"
         style="fill:none;stroke:#ffffff;stroke-width:3;stroke-linecap:butt;stroke-linejoin:miter;stroke-miterlimit:10;stroke-dasharray:none;stroke-opacity:1"
         d="m 1985.305,133 c 0,16.75 -13.578,30.328 -30.328,30.328 -16.747,0 -30.325,-13.578 -30.325,-30.328 0,-16.75 13.578,-30.328 30.325,-30.328 16.75,0 30.328,13.578 30.328,30.328" /><text
         id="text134"
         style="font-variant:normal;font-weight:normal;font-size:26.00024414px;font-family:'DejaVu Sans Mono';-inkscape-font-specification:DejaVuSansMono;writing-mode:lr-tb;fill:#ffffff;fill-opacity:1;fill-rule:nonzero;stroke:none"
         transform="translate(1946.9766,139.30078)"><tspan
           id="tspan132"
           y="0"
           x="0">7</tspan></text>
<path
         id="path136"
         style="fill:none;stroke:#ffffff;stroke-width:3;stroke-linecap:butt;stroke-linejoin:miter;stroke-miterlimit:10;stroke-dasharray:none;stroke-opacity:1"
         d="m 1256.766,121.645 c 6.316,-2.329 13.234,-4.461 19.839,-5.645 275.696,-49.453 354.297,-48.207 630.211,0 3.446,0.602 6.977,1.434 10.477,2.41" /><path
         id="path138"
         style="fill:#ffffff;fill-opacity:1;fill-rule:nonzero;stroke:#ffffff;stroke-width:3;stroke-linecap:butt;stroke-linejoin:miter;stroke-miterlimit:10;stroke-dasharray:none;stroke-opacity:1"
         d="m 1918.496,115.121 8.484,6.348 -10.589,0.328 z" /><text
         id="text142"
         style="font-variant:normal;font-weight:normal;font-size:36px;font-family:'DejaVu Sans Mono';-inkscape-font-specification:DejaVuSansMono;writing-mode:lr-tb;fill:#ffffff;fill-opacity:1;fill-rule:nonzero;stroke:none"
         transform="translate(1539.9336,68.800781)"><tspan
           id="tspan140"
           y="0"
           x="0 21.672001 43.487999 65.160004 86.975998 108.756">&lt;nom&gt;:</tspan></text>
<text
         id="text146"
         style="font-variant:normal;font-weight:normal;font-size:36px;font-family:'DejaVu Sans Mono';-inkscape-font-specification:DejaVuSansMono;writing-mode:lr-tb;fill:#ffffff;fill-opacity:1;fill-rule:nonzero;stroke:none"
         transform="translate(1670.3616,68.800781)"><tspan
           id="tspan144"
           y="0"
           x="0">∅</tspan></text>
<path
         id="path148"
         style="fill:#a9a9a9;fill-opacity:1;fill-rule:nonzero;stroke:none"
         d="m 1522.098,161 c 0,14.539 -11.789,26.328 -26.328,26.328 -14.54,0 -26.329,-11.789 -26.329,-26.328 0,-14.539 11.789,-26.328 26.329,-26.328 14.539,0 26.328,11.789 26.328,26.328" /><path
         id="path150"
         style="fill:none;stroke:#ffffff;stroke-width:3;stroke-linecap:butt;stroke-linejoin:miter;stroke-miterlimit:10;stroke-dasharray:none;stroke-opacity:1"
         d="m 1522.098,161 c 0,14.539 -11.789,26.328 -26.328,26.328 -14.54,0 -26.329,-11.789 -26.329,-26.328 0,-14.539 11.789,-26.328 26.329,-26.328 14.539,0 26.328,11.789 26.328,26.328" /><text
         id="text154"
         style="font-variant:normal;font-weight:normal;font-size:26.00024414px;font-family:'DejaVu Sans Mono';-inkscape-font-specification:DejaVuSansMono;writing-mode:lr-tb;fill:#ffffff;fill-opacity:1;fill-rule:nonzero;stroke:none"
         transform="translate(1487.7695,167.30078)"><tspan
           id="tspan152"
           y="0"
           x="0">8</tspan></text>
<path
         id="path156"
         style="fill:none;stroke:#ffffff;stroke-width:3;stroke-linecap:butt;stroke-linejoin:miter;stroke-miterlimit:10;stroke-dasharray:none;stroke-opacity:1"
         d="m 1254.52,146.383 c 6.761,3.867 14.476,7.551 22.085,9.617 62.657,17.016 139.192,13.492 182.946,9.301" /><path
         id="path158"
         style="fill:#ffffff;fill-opacity:1;fill-rule:nonzero;stroke:none"
         d="m 1459.371,161.801 10.305,2.461 -9.59,4.504 z" /><path
         id="path160"
         style="fill:none;stroke:#ffffff;stroke-width:3;stroke-linecap:butt;stroke-linejoin:miter;stroke-miterlimit:10;stroke-dasharray:none;stroke-opacity:1"
         d="m 1459.371,161.801 10.305,2.461 -9.59,4.504 z" /><text
         id="text164"
         style="font-variant:normal;font-weight:normal;font-size:36px;font-family:'DejaVu Sans Mono';-inkscape-font-specification:DejaVuSansMono;writing-mode:lr-tb;fill:#ffffff;fill-opacity:1;fill-rule:nonzero;stroke:none"
         transform="translate(1276.6055,144.80078)"><tspan
           id="tspan162"
           y="0"
           x="0 21.672001 43.487999 65.160004 86.975998 108.756">&lt;abl&gt;:</tspan></text>
<text
         id="text168"
         style="font-variant:normal;font-weight:normal;font-size:36px;font-family:'DejaVu Sans Mono';-inkscape-font-specification:DejaVuSansMono;writing-mode:lr-tb;fill:#ffffff;fill-opacity:1;fill-rule:nonzero;stroke:none"
         transform="translate(1407.0335,144.80078)"><tspan
           id="tspan166"
           y="0"
           x="0">д</tspan></text>
<path
         id="path170"
         style="fill:#a9a9a9;fill-opacity:1;fill-rule:nonzero;stroke:none"
         d="m 1082.445,163 c 0,14.539 -11.785,26.328 -26.328,26.328 -14.539,0 -26.324,-11.789 -26.324,-26.328 0,-14.539 11.785,-26.328 26.324,-26.328 14.543,0 26.328,11.789 26.328,26.328" /><path
         id="path172"
         style="fill:none;stroke:#ffffff;stroke-width:3;stroke-linecap:butt;stroke-linejoin:miter;stroke-miterlimit:10;stroke-dasharray:none;stroke-opacity:1"
         d="m 1082.445,163 c 0,14.539 -11.785,26.328 -26.328,26.328 -14.539,0 -26.324,-11.789 -26.324,-26.328 0,-14.539 11.785,-26.328 26.324,-26.328 14.543,0 26.328,11.789 26.328,26.328" /><text
         id="text176"
         style="font-variant:normal;font-weight:normal;font-size:26.00024414px;font-family:'DejaVu Sans Mono';-inkscape-font-specification:DejaVuSansMono;writing-mode:lr-tb;fill:#ffffff;fill-opacity:1;fill-rule:nonzero;stroke:none"
         transform="translate(1048.1172,169.30078)"><tspan
           id="tspan174"
           y="0"
           x="0">9</tspan></text>
<path
         id="path178"
         style="fill:none;stroke:#ffffff;stroke-width:3;stroke-linecap:butt;stroke-linejoin:miter;stroke-miterlimit:10;stroke-dasharray:none;stroke-opacity:1"
         d="m 841.352,163.691 c 5.789,0.129 11.906,0.243 17.605,0.309 67.992,0.789 85.004,0.789 153,0 2.402,-0.027 4.879,-0.062 7.375,-0.105" /><path
         id="path180"
         style="fill:#ffffff;fill-opacity:1;fill-rule:nonzero;stroke:none"
         d="m 1019.488,160.391 10.071,3.3 -9.93,3.696 z" /><path
         id="path182"
         style="fill:none;stroke:#ffffff;stroke-width:3;stroke-linecap:butt;stroke-linejoin:miter;stroke-miterlimit:10;stroke-dasharray:none;stroke-opacity:1"
         d="m 1019.488,160.391 10.071,3.3 -9.93,3.696 z" /><text
         id="text186"
         style="font-variant:normal;font-weight:normal;font-size:36px;font-family:'DejaVu Sans Mono';-inkscape-font-specification:DejaVuSansMono;writing-mode:lr-tb;fill:#ffffff;fill-opacity:1;fill-rule:nonzero;stroke:none"
         transform="translate(858.95703,152.80078)"><tspan
           id="tspan184"
           y="0"
           x="0 21.672001 43.487999 65.160004 86.975998">&lt;pl&gt;:</tspan></text>
<text
         id="text190"
         style="font-variant:normal;font-weight:normal;font-size:36px;font-family:'DejaVu Sans Mono';-inkscape-font-specification:DejaVuSansMono;writing-mode:lr-tb;fill:#ffffff;fill-opacity:1;fill-rule:nonzero;stroke:none"
         transform="translate(967.71303,152.80078)"><tspan
           id="tspan188"
           y="0"
           x="0">а</tspan></text>
<path
         id="path192"
         style="fill:#a9a9a9;fill-opacity:1;fill-rule:nonzero;stroke:none"
         d="m 1800.758,164 c 0,18.711 -15.172,33.883 -33.883,33.883 -18.715,0 -33.883,-15.172 -33.883,-33.883 0,-18.711 15.168,-33.883 33.883,-33.883 18.711,0 33.883,15.172 33.883,33.883" /><path
         id="path194"
         style="fill:none;stroke:#ffffff;stroke-width:3;stroke-linecap:butt;stroke-linejoin:miter;stroke-miterlimit:10;stroke-dasharray:none;stroke-opacity:1"
         d="m 1800.758,164 c 0,18.711 -15.172,33.883 -33.883,33.883 -18.715,0 -33.883,-15.172 -33.883,-33.883 0,-18.711 15.168,-33.883 33.883,-33.883 18.711,0 33.883,15.172 33.883,33.883" /><text
         id="text198"
         style="font-variant:normal;font-weight:normal;font-size:26.00024414px;font-family:'DejaVu Sans Mono';-inkscape-font-specification:DejaVuSansMono;writing-mode:lr-tb;fill:#ffffff;fill-opacity:1;fill-rule:nonzero;stroke:none"
         transform="translate(1750.875,170.30078)"><tspan
           id="tspan196"
           y="0"
           x="0 15.756147">10</tspan></text>
<path
         id="path200"
         style="fill:none;stroke:#ffffff;stroke-width:3;stroke-linecap:butt;stroke-linejoin:miter;stroke-miterlimit:10;stroke-dasharray:none;stroke-opacity:1"
         d="m 1521.859,163.039 c 5.926,0.399 12.219,0.758 18.075,0.961 63.644,2.211 137.437,1.617 182.906,0.887" /><path
         id="path202"
         style="fill:#ffffff;fill-opacity:1;fill-rule:nonzero;stroke:none"
         d="m 1722.875,161.387 10.059,3.328 -9.938,3.672 z" /><path
         id="path204"
         style="fill:none;stroke:#ffffff;stroke-width:3;stroke-linecap:butt;stroke-linejoin:miter;stroke-miterlimit:10;stroke-dasharray:none;stroke-opacity:1"
         d="m 1722.875,161.387 10.059,3.328 -9.938,3.672 z" /><text
         id="text208"
         style="font-variant:normal;font-weight:normal;font-size:36px;font-family:'DejaVu Sans Mono';-inkscape-font-specification:DejaVuSansMono;writing-mode:lr-tb;fill:#ffffff;fill-opacity:1;fill-rule:nonzero;stroke:none"
         transform="translate(1583.4336,152.80078)"><tspan
           id="tspan206"
           y="0"
           x="0">∅</tspan></text>
<text
         id="text212"
         style="font-variant:normal;font-weight:normal;font-size:36px;font-family:'DejaVu Sans Mono';-inkscape-font-specification:DejaVuSansMono;writing-mode:lr-tb;fill:#ffffff;fill-opacity:1;fill-rule:nonzero;stroke:none"
         transform="translate(1605.1056,152.80078)"><tspan
           id="tspan210"
           y="0"
           x="0">:</tspan></text>
<text
         id="text216"
         style="font-variant:normal;font-weight:normal;font-size:36px;font-family:'DejaVu Sans Mono';-inkscape-font-specification:DejaVuSansMono;writing-mode:lr-tb;fill:#ffffff;fill-opacity:1;fill-rule:nonzero;stroke:none"
         transform="translate(1626.9216,152.80078)"><tspan
           id="tspan214"
           y="0"
           x="0">а</tspan></text>
<path
         id="path218"
         style="fill:none;stroke:#ffffff;stroke-width:3;stroke-linecap:butt;stroke-linejoin:miter;stroke-miterlimit:10;stroke-dasharray:none;stroke-opacity:1"
         d="m 1082.328,164.973 c 26.828,1.339 70.234,1.312 105.953,-8.973 4.383,-1.262 8.809,-3.035 13.067,-5.055" /><path
         id="path220"
         style="fill:#ffffff;fill-opacity:1;fill-rule:nonzero;stroke:#ffffff;stroke-width:3;stroke-linecap:butt;stroke-linejoin:miter;stroke-miterlimit:10;stroke-dasharray:none;stroke-opacity:1"
         d="m 1199.848,147.781 10.484,-1.539 -7.234,7.738 z" /><text
         id="text224"
         style="font-variant:normal;font-weight:normal;font-size:36px;font-family:'DejaVu Sans Mono';-inkscape-font-specification:DejaVuSansMono;writing-mode:lr-tb;fill:#ffffff;fill-opacity:1;fill-rule:nonzero;stroke:none"
         transform="translate(1100.2813,144.80078)"><tspan
           id="tspan222"
           y="0"
           x="0">∅</tspan></text>
<text
         id="text228"
         style="font-variant:normal;font-weight:normal;font-size:36px;font-family:'DejaVu Sans Mono';-inkscape-font-specification:DejaVuSansMono;writing-mode:lr-tb;fill:#ffffff;fill-opacity:1;fill-rule:nonzero;stroke:none"
         transform="translate(1121.9533,144.80078)"><tspan
           id="tspan226"
           y="0"
           x="0">:</tspan></text>
<text
         id="text232"
         style="font-variant:normal;font-weight:normal;font-size:36px;font-family:'DejaVu Sans Mono';-inkscape-font-specification:DejaVuSansMono;writing-mode:lr-tb;fill:#ffffff;fill-opacity:1;fill-rule:nonzero;stroke:none"
         transform="translate(1143.7693,144.80078)"><tspan
           id="tspan230"
           y="0"
           x="0">р</tspan></text>
<path
         id="path234"
         style="fill:none;stroke:#ffffff;stroke-width:3;stroke-linecap:butt;stroke-linejoin:miter;stroke-miterlimit:10;stroke-dasharray:none;stroke-opacity:1"
         d="m 1801.008,165.723 c 28.512,0.629 70.508,-0.496 105.808,-9.723 4.063,-1.062 8.196,-2.488 12.239,-4.113" /><path
         id="path236"
         style="fill:#ffffff;fill-opacity:1;fill-rule:nonzero;stroke:#ffffff;stroke-width:3;stroke-linecap:butt;stroke-linejoin:miter;stroke-miterlimit:10;stroke-dasharray:none;stroke-opacity:1"
         d="m 1917.688,148.664 10.562,-0.848 -7.727,7.246 z" /><text
         id="text240"
         style="font-variant:normal;font-weight:normal;font-size:36px;font-family:'DejaVu Sans Mono';-inkscape-font-specification:DejaVuSansMono;writing-mode:lr-tb;fill:#ffffff;fill-opacity:1;fill-rule:nonzero;stroke:none"
         transform="translate(1818.8164,144.80078)"><tspan
           id="tspan238"
           y="0"
           x="0">∅</tspan></text>
<text
         id="text244"
         style="font-variant:normal;font-weight:normal;font-size:36px;font-family:'DejaVu Sans Mono';-inkscape-font-specification:DejaVuSansMono;writing-mode:lr-tb;fill:#ffffff;fill-opacity:1;fill-rule:nonzero;stroke:none"
         transform="translate(1840.4884,144.80078)"><tspan
           id="tspan242"
           y="0"
           x="0">:</tspan></text>
<text
         id="text248"
         style="font-variant:normal;font-weight:normal;font-size:36px;font-family:'DejaVu Sans Mono';-inkscape-font-specification:DejaVuSansMono;writing-mode:lr-tb;fill:#ffffff;fill-opacity:1;fill-rule:nonzero;stroke:none"
         transform="translate(1862.3044,144.80078)"><tspan
           id="tspan246"
           y="0"
           x="0">н</tspan></text>
</g></g></svg>