<?xml version="1.0" encoding="UTF-8" standalone="no"?>
<svg
   xmlns:dc="http://purl.org/dc/elements/1.1/"
   xmlns:cc="http://creativecommons.org/ns#"
   xmlns:rdf="http://www.w3.org/1999/02/22-rdf-syntax-ns#"
   xmlns:svg="http://www.w3.org/2000/svg"
   xmlns="http://www.w3.org/2000/svg"
   viewBox="0 0 4046.6667 601.33331"
   height="601.33331"
   width="4046.6667"
   xml:space="preserve"
   id="svg2"
   version="1.1"><metadata
     id="metadata8"><rdf:RDF><cc:Work
         rdf:about=""><dc:format>image/svg+xml</dc:format><dc:type
           rdf:resource="http://purl.org/dc/dcmitype/StillImage" /></cc:Work></rdf:RDF></metadata><defs
     id="defs6" /><g
     transform="matrix(1.3333333,0,0,1.3333333,0,1.17e-5)"
     id="g10"><g
       id="g12"><path
         id="path14"
         style="fill:#777777;fill-opacity:1;fill-rule:nonzero;stroke:none"
         d="m 92.488,278 c 0,14.539 -11.785,26.328 -26.324,26.328 -14.543,0 -26.328,-11.789 -26.328,-26.328 0,-14.539 11.785,-26.328 26.328,-26.328 14.539,0 26.324,11.789 26.324,26.328" /><path
         id="path16"
         style="fill:none;stroke:#ffffff;stroke-width:3;stroke-linecap:butt;stroke-linejoin:miter;stroke-miterlimit:10;stroke-dasharray:none;stroke-opacity:1"
         d="m 92.488,278 c 0,14.539 -11.785,26.328 -26.324,26.328 -14.543,0 -26.328,-11.789 -26.328,-26.328 0,-14.539 11.785,-26.328 26.328,-26.328 14.539,0 26.324,11.789 26.324,26.328" /><text
         id="text20"
         style="font-variant:normal;font-weight:normal;font-size:26.00024414px;font-family:'DejaVu Sans Mono';-inkscape-font-specification:DejaVuSansMono;writing-mode:lr-tb;fill:#ffffff;fill-opacity:1;fill-rule:nonzero;stroke:none"
         transform="translate(58.164062,284.30078)"><tspan
           id="tspan18"
           y="0"
           x="0">0</tspan></text>
<path
         id="path22"
         style="fill:#777777;fill-opacity:1;fill-rule:nonzero;stroke:#ffffff;stroke-width:3;stroke-linecap:butt;stroke-linejoin:miter;stroke-miterlimit:10;stroke-dasharray:none;stroke-opacity:1"
         d="m 325.816,233 c 0,14.539 -11.789,26.328 -26.328,26.328 -14.539,0 -26.328,-11.789 -26.328,-26.328 0,-14.539 11.789,-26.328 26.328,-26.328 14.539,0 26.328,11.789 26.328,26.328" /><text
         id="text26"
         style="font-variant:normal;font-weight:normal;font-size:26.00024414px;font-family:'DejaVu Sans Mono';-inkscape-font-specification:DejaVuSansMono;writing-mode:lr-tb;fill:#ffffff;fill-opacity:1;fill-rule:nonzero;stroke:none"
         transform="translate(291.48828,239.30078)"><tspan
           id="tspan24"
           y="0"
           x="0">1</tspan></text>
<path
         id="path28"
         style="fill:none;stroke:#ffffff;stroke-width:3;stroke-linecap:butt;stroke-linejoin:miter;stroke-miterlimit:10;stroke-dasharray:none;stroke-opacity:1"
         d="m 88.871,264.406 c 6.66,-3.605 14.16,-7.125 21.453,-9.406 51.508,-16.102 114.285,-20.602 152.727,-21.754" /><path
         id="path30"
         style="fill:#ffffff;fill-opacity:1;fill-rule:nonzero;stroke:#ffffff;stroke-width:3;stroke-linecap:butt;stroke-linejoin:miter;stroke-miterlimit:10;stroke-dasharray:none;stroke-opacity:1"
         d="m 263.137,229.742 10.082,3.258 -9.914,3.738 z" /><text
         id="text34"
         style="font-variant:normal;font-weight:normal;font-size:60px;font-family:'DejaVu Sans Mono';-inkscape-font-specification:DejaVuSansMono;writing-mode:lr-tb;fill:#60f060;fill-opacity:1;fill-rule:nonzero;stroke:none"
         transform="translate(110.32422,215)"><tspan
           id="tspan32"
           y="0"
           x="0">а</tspan></text>
<text
         id="text38"
         style="font-variant:normal;font-weight:normal;font-size:60px;font-family:'DejaVu Sans Mono';-inkscape-font-specification:DejaVuSansMono;writing-mode:lr-tb;fill:#60f060;fill-opacity:1;fill-rule:nonzero;stroke:none"
         transform="translate(146.44422,215)"><tspan
           id="tspan36"
           y="0"
           x="0 35.880001 72">:a </tspan></text>
<path
         id="path40"
         style="fill:#777777;fill-opacity:1;fill-rule:nonzero;stroke:#ffffff;stroke-width:3;stroke-linecap:butt;stroke-linejoin:miter;stroke-miterlimit:10;stroke-dasharray:none;stroke-opacity:1"
         d="m 325.816,322 c 0,14.539 -11.789,26.328 -26.328,26.328 -14.539,0 -26.328,-11.789 -26.328,-26.328 0,-14.539 11.789,-26.328 26.328,-26.328 14.539,0 26.328,11.789 26.328,26.328" /><text
         id="text44"
         style="font-variant:normal;font-weight:normal;font-size:26.00024414px;font-family:'DejaVu Sans Mono';-inkscape-font-specification:DejaVuSansMono;writing-mode:lr-tb;fill:#ffffff;fill-opacity:1;fill-rule:nonzero;stroke:none"
         transform="translate(291.48828,328.30078)"><tspan
           id="tspan42"
           y="0"
           x="0">2</tspan></text>
<path
         id="path46"
         style="fill:none;stroke:#ffffff;stroke-width:3;stroke-linecap:butt;stroke-linejoin:miter;stroke-miterlimit:10;stroke-dasharray:none;stroke-opacity:1"
         d="m 82.387,299.188 c 7.375,8.46 17,17.261 27.937,21.812 50.035,20.824 114.246,15.078 153.242,8.453" /><path
         id="path48"
         style="fill:#ffffff;fill-opacity:1;fill-rule:nonzero;stroke:#ffffff;stroke-width:3;stroke-linecap:butt;stroke-linejoin:miter;stroke-miterlimit:10;stroke-dasharray:none;stroke-opacity:1"
         d="m 263.398,325.926 10.465,1.656 -9.211,5.234 z" /><text
         id="text52"
         style="font-variant:normal;font-weight:normal;font-size:60px;font-family:'DejaVu Sans Mono';-inkscape-font-specification:DejaVuSansMono;writing-mode:lr-tb;fill:#60f060;fill-opacity:1;fill-rule:nonzero;stroke:none"
         transform="translate(146.32422,303)"><tspan
           id="tspan50"
           y="0"
           x="0">а</tspan></text>
<path
         id="path54"
         style="fill:#777777;fill-opacity:1;fill-rule:nonzero;stroke:#ffffff;stroke-width:3;stroke-linecap:butt;stroke-linejoin:miter;stroke-miterlimit:10;stroke-dasharray:none;stroke-opacity:1"
         d="m 559.141,233 c 0,14.539 -11.786,26.328 -26.325,26.328 -14.543,0 -26.328,-11.789 -26.328,-26.328 0,-14.539 11.785,-26.328 26.328,-26.328 14.539,0 26.325,11.789 26.325,26.328" /><text
         id="text58"
         style="font-variant:normal;font-weight:normal;font-size:26.00024414px;font-family:'DejaVu Sans Mono';-inkscape-font-specification:DejaVuSansMono;writing-mode:lr-tb;fill:#ffffff;fill-opacity:1;fill-rule:nonzero;stroke:none"
         transform="translate(524.81641,239.30078)"><tspan
           id="tspan56"
           y="0"
           x="0">3</tspan></text>
<path
         id="path60"
         style="fill:none;stroke:#ffffff;stroke-width:3;stroke-linecap:butt;stroke-linejoin:miter;stroke-miterlimit:10;stroke-dasharray:none;stroke-opacity:1"
         d="m 325.684,233 c 41.371,0 123.789,0 170.914,0" /><path
         id="path62"
         style="fill:#ffffff;fill-opacity:1;fill-rule:nonzero;stroke:#ffffff;stroke-width:3;stroke-linecap:butt;stroke-linejoin:miter;stroke-miterlimit:10;stroke-dasharray:none;stroke-opacity:1"
         d="m 496.648,229.5 10,3.5 -10,3.5 z" /><text
         id="text66"
         style="font-variant:normal;font-weight:normal;font-size:60px;font-family:'DejaVu Sans Mono';-inkscape-font-specification:DejaVuSansMono;writing-mode:lr-tb;fill:#60f060;fill-opacity:1;fill-rule:nonzero;stroke:none"
         transform="translate(343.65234,215)"><tspan
           id="tspan64"
           y="0"
           x="0">л</tspan></text>
<text
         id="text70"
         style="font-variant:normal;font-weight:normal;font-size:60px;font-family:'DejaVu Sans Mono';-inkscape-font-specification:DejaVuSansMono;writing-mode:lr-tb;fill:#60f060;fill-opacity:1;fill-rule:nonzero;stroke:none"
         transform="translate(379.77234,215)"><tspan
           id="tspan68"
           y="0"
           x="0 35.880001 72">:l </tspan></text>
<path
         id="path72"
         style="fill:#777777;fill-opacity:1;fill-rule:nonzero;stroke:#ffffff;stroke-width:3;stroke-linecap:butt;stroke-linejoin:miter;stroke-miterlimit:10;stroke-dasharray:none;stroke-opacity:1"
         d="m 559.141,322 c 0,14.539 -11.786,26.328 -26.325,26.328 -14.543,0 -26.328,-11.789 -26.328,-26.328 0,-14.539 11.785,-26.328 26.328,-26.328 14.539,0 26.325,11.789 26.325,26.328" /><text
         id="text76"
         style="font-variant:normal;font-weight:normal;font-size:26.00024414px;font-family:'DejaVu Sans Mono';-inkscape-font-specification:DejaVuSansMono;writing-mode:lr-tb;fill:#ffffff;fill-opacity:1;fill-rule:nonzero;stroke:none"
         transform="translate(524.81641,328.30078)"><tspan
           id="tspan74"
           y="0"
           x="0">4</tspan></text>
<path
         id="path78"
         style="fill:none;stroke:#ffffff;stroke-width:3;stroke-linecap:butt;stroke-linejoin:miter;stroke-miterlimit:10;stroke-dasharray:none;stroke-opacity:1"
         d="m 325.684,322 c 41.371,0 123.789,0 170.914,0" /><path
         id="path80"
         style="fill:#ffffff;fill-opacity:1;fill-rule:nonzero;stroke:#ffffff;stroke-width:3;stroke-linecap:butt;stroke-linejoin:miter;stroke-miterlimit:10;stroke-dasharray:none;stroke-opacity:1"
         d="m 496.648,318.5 10,3.5 -10,3.5 z" /><text
         id="text84"
         style="font-variant:normal;font-weight:normal;font-size:60px;font-family:'DejaVu Sans Mono';-inkscape-font-specification:DejaVuSansMono;writing-mode:lr-tb;fill:#60f060;fill-opacity:1;fill-rule:nonzero;stroke:none"
         transform="translate(379.65234,304)"><tspan
           id="tspan82"
           y="0"
           x="0">л</tspan></text>
<path
         id="path86"
         style="fill:#777777;fill-opacity:1;fill-rule:nonzero;stroke:#ffffff;stroke-width:3;stroke-linecap:butt;stroke-linejoin:miter;stroke-miterlimit:10;stroke-dasharray:none;stroke-opacity:1"
         d="m 792.469,233 c 0,14.539 -11.789,26.328 -26.328,26.328 -14.539,0 -26.329,-11.789 -26.329,-26.328 0,-14.539 11.79,-26.328 26.329,-26.328 14.539,0 26.328,11.789 26.328,26.328" /><text
         id="text90"
         style="font-variant:normal;font-weight:normal;font-size:26.00024414px;font-family:'DejaVu Sans Mono';-inkscape-font-specification:DejaVuSansMono;writing-mode:lr-tb;fill:#ffffff;fill-opacity:1;fill-rule:nonzero;stroke:none"
         transform="translate(758.14062,239.30078)"><tspan
           id="tspan88"
           y="0"
           x="0">5</tspan></text>
<path
         id="path92"
         style="fill:none;stroke:#ffffff;stroke-width:3;stroke-linecap:butt;stroke-linejoin:miter;stroke-miterlimit:10;stroke-dasharray:none;stroke-opacity:1"
         d="m 559.012,233 c 41.367,0 123.785,0 170.91,0" /><path
         id="path94"
         style="fill:#ffffff;fill-opacity:1;fill-rule:nonzero;stroke:#ffffff;stroke-width:3;stroke-linecap:butt;stroke-linejoin:miter;stroke-miterlimit:10;stroke-dasharray:none;stroke-opacity:1"
         d="m 729.977,229.5 10,3.5 -10,3.5 z" /><text
         id="text98"
         style="font-variant:normal;font-weight:normal;font-size:60px;font-family:'DejaVu Sans Mono';-inkscape-font-specification:DejaVuSansMono;writing-mode:lr-tb;fill:#60f060;fill-opacity:1;fill-rule:nonzero;stroke:none"
         transform="translate(576.97656,215)"><tspan
           id="tspan96"
           y="0"
           x="0">м</tspan></text>
<text
         id="text102"
         style="font-variant:normal;font-weight:normal;font-size:60px;font-family:'DejaVu Sans Mono';-inkscape-font-specification:DejaVuSansMono;writing-mode:lr-tb;fill:#60f060;fill-opacity:1;fill-rule:nonzero;stroke:none"
         transform="translate(613.09656,215)"><tspan
           id="tspan100"
           y="0"
           x="0 35.880001 72">:m </tspan></text>
<path
         id="path104"
         style="fill:#777777;fill-opacity:1;fill-rule:nonzero;stroke:#ffffff;stroke-width:3;stroke-linecap:butt;stroke-linejoin:miter;stroke-miterlimit:10;stroke-dasharray:none;stroke-opacity:1"
         d="m 792.469,322 c 0,14.539 -11.789,26.328 -26.328,26.328 -14.539,0 -26.329,-11.789 -26.329,-26.328 0,-14.539 11.79,-26.328 26.329,-26.328 14.539,0 26.328,11.789 26.328,26.328" /><text
         id="text108"
         style="font-variant:normal;font-weight:normal;font-size:26.00024414px;font-family:'DejaVu Sans Mono';-inkscape-font-specification:DejaVuSansMono;writing-mode:lr-tb;fill:#ffffff;fill-opacity:1;fill-rule:nonzero;stroke:none"
         transform="translate(758.14062,328.30078)"><tspan
           id="tspan106"
           y="0"
           x="0">6</tspan></text>
<path
         id="path110"
         style="fill:none;stroke:#ffffff;stroke-width:3;stroke-linecap:butt;stroke-linejoin:miter;stroke-miterlimit:10;stroke-dasharray:none;stroke-opacity:1"
         d="m 559.012,322 c 41.367,0 123.785,0 170.91,0" /><path
         id="path112"
         style="fill:#ffffff;fill-opacity:1;fill-rule:nonzero;stroke:#ffffff;stroke-width:3;stroke-linecap:butt;stroke-linejoin:miter;stroke-miterlimit:10;stroke-dasharray:none;stroke-opacity:1"
         d="m 729.977,318.5 10,3.5 -10,3.5 z" /><text
         id="text116"
         style="font-variant:normal;font-weight:normal;font-size:60px;font-family:'DejaVu Sans Mono';-inkscape-font-specification:DejaVuSansMono;writing-mode:lr-tb;fill:#60f060;fill-opacity:1;fill-rule:nonzero;stroke:none"
         transform="translate(612.97656,304)"><tspan
           id="tspan114"
           y="0"
           x="0">м</tspan></text>
<path
         id="path118"
         style="fill:#777777;fill-opacity:1;fill-rule:nonzero;stroke:#ffffff;stroke-width:3;stroke-linecap:butt;stroke-linejoin:miter;stroke-miterlimit:10;stroke-dasharray:none;stroke-opacity:1"
         d="m 1025.793,233 c 0,14.539 -11.785,26.328 -26.328,26.328 -14.539,0 -26.324,-11.789 -26.324,-26.328 0,-14.539 11.785,-26.328 26.324,-26.328 14.543,0 26.328,11.789 26.328,26.328" /><text
         id="text122"
         style="font-variant:normal;font-weight:normal;font-size:26.00024414px;font-family:'DejaVu Sans Mono';-inkscape-font-specification:DejaVuSansMono;writing-mode:lr-tb;fill:#ffffff;fill-opacity:1;fill-rule:nonzero;stroke:none"
         transform="translate(991.46484,239.30078)"><tspan
           id="tspan120"
           y="0"
           x="0">7</tspan></text>
<path
         id="path124"
         style="fill:none;stroke:#ffffff;stroke-width:3;stroke-linecap:butt;stroke-linejoin:miter;stroke-miterlimit:10;stroke-dasharray:none;stroke-opacity:1"
         d="m 792.336,233 c 41.371,0 123.789,0 170.914,0" /><path
         id="path126"
         style="fill:#ffffff;fill-opacity:1;fill-rule:nonzero;stroke:#ffffff;stroke-width:3;stroke-linecap:butt;stroke-linejoin:miter;stroke-miterlimit:10;stroke-dasharray:none;stroke-opacity:1"
         d="m 963.301,229.5 10,3.5 -10,3.5 z" /><text
         id="text130"
         style="font-variant:normal;font-weight:normal;font-size:60px;font-family:'DejaVu Sans Mono';-inkscape-font-specification:DejaVuSansMono;writing-mode:lr-tb;fill:#60f060;fill-opacity:1;fill-rule:nonzero;stroke:none"
         transform="translate(810.30469,215)"><tspan
           id="tspan128"
           y="0"
           x="0">а</tspan></text>
<text
         id="text134"
         style="font-variant:normal;font-weight:normal;font-size:60px;font-family:'DejaVu Sans Mono';-inkscape-font-specification:DejaVuSansMono;writing-mode:lr-tb;fill:#60f060;fill-opacity:1;fill-rule:nonzero;stroke:none"
         transform="translate(846.42469,215)"><tspan
           id="tspan132"
           y="0"
           x="0 35.880001 72">:a </tspan></text>
<path
         id="path136"
         style="fill:#777777;fill-opacity:1;fill-rule:nonzero;stroke:#ffffff;stroke-width:3;stroke-linecap:butt;stroke-linejoin:miter;stroke-miterlimit:10;stroke-dasharray:none;stroke-opacity:1"
         d="m 1025.793,322 c 0,14.539 -11.785,26.328 -26.328,26.328 -14.539,0 -26.324,-11.789 -26.324,-26.328 0,-14.539 11.785,-26.328 26.324,-26.328 14.543,0 26.328,11.789 26.328,26.328" /><text
         id="text140"
         style="font-variant:normal;font-weight:normal;font-size:26.00024414px;font-family:'DejaVu Sans Mono';-inkscape-font-specification:DejaVuSansMono;writing-mode:lr-tb;fill:#ffffff;fill-opacity:1;fill-rule:nonzero;stroke:none"
         transform="translate(991.46484,328.30078)"><tspan
           id="tspan138"
           y="0"
           x="0">8</tspan></text>
<path
         id="path142"
         style="fill:none;stroke:#ffffff;stroke-width:3;stroke-linecap:butt;stroke-linejoin:miter;stroke-miterlimit:10;stroke-dasharray:none;stroke-opacity:1"
         d="m 792.336,322 c 41.371,0 123.789,0 170.914,0" /><path
         id="path144"
         style="fill:#ffffff;fill-opacity:1;fill-rule:nonzero;stroke:#ffffff;stroke-width:3;stroke-linecap:butt;stroke-linejoin:miter;stroke-miterlimit:10;stroke-dasharray:none;stroke-opacity:1"
         d="m 963.301,318.5 10,3.5 -10,3.5 z" /><text
         id="text148"
         style="font-variant:normal;font-weight:normal;font-size:60px;font-family:'DejaVu Sans Mono';-inkscape-font-specification:DejaVuSansMono;writing-mode:lr-tb;fill:#60f060;fill-opacity:1;fill-rule:nonzero;stroke:none"
         transform="translate(846.30469,304)"><tspan
           id="tspan146"
           y="0"
           x="0">а</tspan></text>
<path
         id="path150"
         style="fill:#777777;fill-opacity:1;fill-rule:nonzero;stroke:#ffffff;stroke-width:3;stroke-linecap:butt;stroke-linejoin:miter;stroke-miterlimit:10;stroke-dasharray:none;stroke-opacity:1"
         d="m 1944.66,211 c 0,14.539 -11.785,26.328 -26.324,26.328 -14.539,0 -26.328,-11.789 -26.328,-26.328 0,-14.539 11.789,-26.328 26.328,-26.328 14.539,0 26.324,11.789 26.324,26.328" /><text
         id="text154"
         style="font-variant:normal;font-weight:normal;font-size:26.00024414px;font-family:'DejaVu Sans Mono';-inkscape-font-specification:DejaVuSansMono;writing-mode:lr-tb;fill:#ffffff;fill-opacity:1;fill-rule:nonzero;stroke:none"
         transform="translate(1910.3359,217.30078)"><tspan
           id="tspan152"
           y="0"
           x="0">9</tspan></text>
<path
         id="path156"
         style="fill:none;stroke:#ffffff;stroke-width:3;stroke-linecap:butt;stroke-linejoin:miter;stroke-miterlimit:10;stroke-dasharray:none;stroke-opacity:1"
         d="m 1008.582,208.254 c 6.68,-16 17.879,-35.586 35.047,-45.254 262.488,-147.797 376.531,-3.891 677.766,-5 64.445,-0.238 85.707,-25.25 145,0 11.742,5 22.082,14.18 30.328,23.516" /><path
         id="path158"
         style="fill:#ffffff;fill-opacity:1;fill-rule:nonzero;stroke:#ffffff;stroke-width:3;stroke-linecap:butt;stroke-linejoin:miter;stroke-miterlimit:10;stroke-dasharray:none;stroke-opacity:1"
         d="m 1899.48,179.355 3.657,9.946 -9.059,-5.492 z" /><text
         id="text162"
         style="font-variant:normal;font-weight:normal;font-size:60px;font-family:'DejaVu Sans Mono';-inkscape-font-specification:DejaVuSansMono;writing-mode:lr-tb;fill:#60f060;fill-opacity:1;fill-rule:nonzero;stroke:none"
         transform="translate(1382.5117,88)"><tspan
           id="tspan160"
           y="0"
           x="0 36.119999 72 108.12">&lt;n&gt;:</tspan></text>
<text
         id="text166"
         style="font-variant:normal;font-weight:normal;font-size:60px;font-family:'DejaVu Sans Mono';-inkscape-font-specification:DejaVuSansMono;writing-mode:lr-tb;fill:#60f060;fill-opacity:1;fill-rule:nonzero;stroke:none"
         transform="translate(1526.5117,88)"><tspan
           id="tspan164"
           y="0"
           x="0">∅</tspan></text>
<path
         id="path168"
         style="fill:#777777;fill-opacity:1;fill-rule:nonzero;stroke:#ffffff;stroke-width:3;stroke-linecap:butt;stroke-linejoin:miter;stroke-miterlimit:10;stroke-dasharray:none;stroke-opacity:1"
         d="m 1346.453,233 c 0,18.711 -15.168,33.883 -33.883,33.883 -18.711,0 -33.882,-15.172 -33.882,-33.883 0,-18.711 15.171,-33.883 33.882,-33.883 18.715,0 33.883,15.172 33.883,33.883" /><text
         id="text172"
         style="font-variant:normal;font-weight:normal;font-size:26.00024414px;font-family:'DejaVu Sans Mono';-inkscape-font-specification:DejaVuSansMono;writing-mode:lr-tb;fill:#ffffff;fill-opacity:1;fill-rule:nonzero;stroke:none"
         transform="translate(1296.5703,239.30078)"><tspan
           id="tspan170"
           y="0"
           x="0 15.756147">10</tspan></text>
<path
         id="path174"
         style="fill:none;stroke:#ffffff;stroke-width:3;stroke-linecap:butt;stroke-linejoin:miter;stroke-miterlimit:10;stroke-dasharray:none;stroke-opacity:1"
         d="m 1025.66,233 c 53.004,0 176.567,0 242.555,0" /><path
         id="path176"
         style="fill:#ffffff;fill-opacity:1;fill-rule:nonzero;stroke:#ffffff;stroke-width:3;stroke-linecap:butt;stroke-linejoin:miter;stroke-miterlimit:10;stroke-dasharray:none;stroke-opacity:1"
         d="m 1268.293,229.5 10,3.5 -10,3.5 z" /><text
         id="text180"
         style="font-variant:normal;font-weight:normal;font-size:60px;font-family:'DejaVu Sans Mono';-inkscape-font-specification:DejaVuSansMono;writing-mode:lr-tb;fill:#60f060;fill-opacity:1;fill-rule:nonzero;stroke:none"
         transform="translate(1043.6289,215)"><tspan
           id="tspan178"
           y="0"
           x="0 36.119999 72 108.12 144 180.12">&lt;n&gt;:l </tspan></text>
<path
         id="path182"
         style="fill:#777777;fill-opacity:1;fill-rule:nonzero;stroke:#ffffff;stroke-width:3;stroke-linecap:butt;stroke-linejoin:miter;stroke-miterlimit:10;stroke-dasharray:none;stroke-opacity:1"
         d="m 1346.453,322 c 0,18.711 -15.168,33.883 -33.883,33.883 -18.711,0 -33.882,-15.172 -33.882,-33.883 0,-18.711 15.171,-33.883 33.882,-33.883 18.715,0 33.883,15.172 33.883,33.883" /><text
         id="text186"
         style="font-variant:normal;font-weight:normal;font-size:26.00024414px;font-family:'DejaVu Sans Mono';-inkscape-font-specification:DejaVuSansMono;writing-mode:lr-tb;fill:#ffffff;fill-opacity:1;fill-rule:nonzero;stroke:none"
         transform="translate(1296.5703,328.30078)"><tspan
           id="tspan184"
           y="0"
           x="0 15.756147">11</tspan></text>
<path
         id="path188"
         style="fill:none;stroke:#ffffff;stroke-width:3;stroke-linecap:butt;stroke-linejoin:miter;stroke-miterlimit:10;stroke-dasharray:none;stroke-opacity:1"
         d="m 1025.66,322 c 53.004,0 176.567,0 242.555,0" /><path
         id="path190"
         style="fill:#ffffff;fill-opacity:1;fill-rule:nonzero;stroke:#ffffff;stroke-width:3;stroke-linecap:butt;stroke-linejoin:miter;stroke-miterlimit:10;stroke-dasharray:none;stroke-opacity:1"
         d="m 1268.293,318.5 10,3.5 -10,3.5 z" /><text
         id="text194"
         style="font-variant:normal;font-weight:normal;font-size:60px;font-family:'DejaVu Sans Mono';-inkscape-font-specification:DejaVuSansMono;writing-mode:lr-tb;fill:#60f060;fill-opacity:1;fill-rule:nonzero;stroke:none"
         transform="translate(1043.6289,304)"><tspan
           id="tspan192"
           y="0"
           x="0 36.119999 72 108.12">&lt;n&gt;:</tspan></text>
<text
         id="text198"
         style="font-variant:normal;font-weight:normal;font-size:60px;font-family:'DejaVu Sans Mono';-inkscape-font-specification:DejaVuSansMono;writing-mode:lr-tb;fill:#60f060;fill-opacity:1;fill-rule:nonzero;stroke:none"
         transform="translate(1187.6289,304)"><tspan
           id="tspan196"
           y="0"
           x="0">л</tspan></text>
<path
         id="path200"
         style="fill:#777777;fill-opacity:1;fill-rule:nonzero;stroke:none"
         d="m 1952.219,374 c 0,18.711 -15.172,33.883 -33.883,33.883 -18.715,0 -33.883,-15.172 -33.883,-33.883 0,-18.711 15.168,-33.883 33.883,-33.883 18.711,0 33.883,15.172 33.883,33.883" /><path
         id="path202"
         style="fill:none;stroke:#ffffff;stroke-width:3;stroke-linecap:butt;stroke-linejoin:miter;stroke-miterlimit:10;stroke-dasharray:none;stroke-opacity:1"
         d="m 1952.219,374 c 0,18.711 -15.172,33.883 -33.883,33.883 -18.715,0 -33.883,-15.172 -33.883,-33.883 0,-18.711 15.168,-33.883 33.883,-33.883 18.711,0 33.883,15.172 33.883,33.883" /><text
         id="text206"
         style="font-variant:normal;font-weight:normal;font-size:26.00024414px;font-family:'DejaVu Sans Mono';-inkscape-font-specification:DejaVuSansMono;writing-mode:lr-tb;fill:#ffffff;fill-opacity:1;fill-rule:nonzero;stroke:none"
         transform="translate(1902.3359,380.30078)"><tspan
           id="tspan204"
           y="0"
           x="0 15.756147">12</tspan></text>
<path
         id="path208"
         style="fill:none;stroke:#ffffff;stroke-width:3;stroke-linecap:butt;stroke-linejoin:miter;stroke-miterlimit:10;stroke-dasharray:none;stroke-opacity:1"
         d="m 1024.875,329.383 c 58.129,17.156 209.629,59.328 339.637,73.617 111.769,12.285 140.687,5.418 253,0 91.711,-4.426 198.652,-16.422 256.793,-23.523" /><path
         id="path210"
         style="fill:#ffffff;fill-opacity:1;fill-rule:nonzero;stroke:none"
         d="m 1874.227,375.961 10.351,2.25 -9.496,4.699 z" /><path
         id="path212"
         style="fill:none;stroke:#ffffff;stroke-width:3;stroke-linecap:butt;stroke-linejoin:miter;stroke-miterlimit:10;stroke-dasharray:none;stroke-opacity:1"
         d="m 1874.227,375.961 10.351,2.25 -9.496,4.699 z" /><text
         id="text216"
         style="font-variant:normal;font-weight:normal;font-size:60px;font-family:'DejaVu Sans Mono';-inkscape-font-specification:DejaVuSansMono;writing-mode:lr-tb;fill:#60f060;fill-opacity:1;fill-rule:nonzero;stroke:none"
         transform="translate(1382.5117,385)"><tspan
           id="tspan214"
           y="0"
           x="0 36.119999 72 108.12">&lt;n&gt;:</tspan></text>
<text
         id="text220"
         style="font-variant:normal;font-weight:normal;font-size:60px;font-family:'DejaVu Sans Mono';-inkscape-font-specification:DejaVuSansMono;writing-mode:lr-tb;fill:#60f060;fill-opacity:1;fill-rule:nonzero;stroke:none"
         transform="translate(1526.5117,385)"><tspan
           id="tspan218"
           y="0"
           x="0">∅</tspan></text>
<path
         id="path222"
         style="fill:#777777;fill-opacity:1;fill-rule:nonzero;stroke:#ffffff;stroke-width:3;stroke-linecap:butt;stroke-linejoin:miter;stroke-miterlimit:10;stroke-dasharray:none;stroke-opacity:1"
         d="m 2345.102,151 c 0,18.711 -15.172,33.883 -33.883,33.883 -18.715,0 -33.883,-15.172 -33.883,-33.883 0,-18.711 15.168,-33.883 33.883,-33.883 18.711,0 33.883,15.172 33.883,33.883" /><text
         id="text226"
         style="font-variant:normal;font-weight:normal;font-size:26.00024414px;font-family:'DejaVu Sans Mono';-inkscape-font-specification:DejaVuSansMono;writing-mode:lr-tb;fill:#ffffff;fill-opacity:1;fill-rule:nonzero;stroke:none"
         transform="translate(2295.2188,157.30078)"><tspan
           id="tspan224"
           y="0"
           x="0 15.756147">13</tspan></text>
<path
         id="path228"
         style="fill:none;stroke:#ffffff;stroke-width:3;stroke-linecap:butt;stroke-linejoin:miter;stroke-miterlimit:10;stroke-dasharray:none;stroke-opacity:1"
         d="m 1944.383,207.156 c 65.359,-10.035 241.676,-37.097 323.301,-49.629" /><path
         id="path230"
         style="fill:#ffffff;fill-opacity:1;fill-rule:nonzero;stroke:#ffffff;stroke-width:3;stroke-linecap:butt;stroke-linejoin:miter;stroke-miterlimit:10;stroke-dasharray:none;stroke-opacity:1"
         d="m 2267.207,154.062 10.414,1.942 -9.351,4.976 z" /><text
         id="text234"
         style="font-variant:normal;font-weight:normal;font-size:60px;font-family:'DejaVu Sans Mono';-inkscape-font-specification:DejaVuSansMono;writing-mode:lr-tb;fill:#60f060;fill-opacity:1;fill-rule:nonzero;stroke:none"
         transform="translate(1970.2773,142)"><tspan
           id="tspan232"
           y="0"
           x="0 36.119999 72 108.12 144 180.12 216 252.12">&lt;abl&gt;:d </tspan></text>
<path
         id="path236"
         style="fill:#777777;fill-opacity:1;fill-rule:nonzero;stroke:none"
         d="m 2990.871,265 c 0,18.715 -15.172,33.887 -33.891,33.887 -18.714,0 -33.886,-15.172 -33.886,-33.887 0,-18.715 15.172,-33.887 33.886,-33.887 18.719,0 33.891,15.172 33.891,33.887" /><path
         id="path238"
         style="fill:none;stroke:#ffffff;stroke-width:3;stroke-linecap:butt;stroke-linejoin:miter;stroke-miterlimit:10;stroke-dasharray:none;stroke-opacity:1"
         d="m 2990.871,265 c 0,18.715 -15.172,33.887 -33.891,33.887 -18.714,0 -33.886,-15.172 -33.886,-33.887 0,-18.715 15.172,-33.887 33.886,-33.887 18.719,0 33.891,15.172 33.891,33.887" /><path
         id="path240"
         style="fill:none;stroke:#ffffff;stroke-width:3;stroke-linecap:butt;stroke-linejoin:miter;stroke-miterlimit:10;stroke-dasharray:none;stroke-opacity:1"
         d="m 2994.863,265 c 0,20.922 -16.961,37.883 -37.883,37.883 -20.921,0 -37.882,-16.961 -37.882,-37.883 0,-20.922 16.961,-37.883 37.882,-37.883 20.922,0 37.883,16.961 37.883,37.883" /><text
         id="text244"
         style="font-variant:normal;font-weight:normal;font-size:26.00024414px;font-family:'DejaVu Sans Mono';-inkscape-font-specification:DejaVuSansMono;writing-mode:lr-tb;fill:#ffffff;fill-opacity:1;fill-rule:nonzero;stroke:none"
         transform="translate(2940.9805,271.30078)"><tspan
           id="tspan242"
           y="0"
           x="0 15.756147">17</tspan></text>
<path
         id="path246"
         style="fill:none;stroke:#ffffff;stroke-width:3;stroke-linecap:butt;stroke-linejoin:miter;stroke-miterlimit:10;stroke-dasharray:none;stroke-opacity:1"
         d="m 1944.906,211.617 c 152.121,3.684 932.156,22.813 956.133,28.383 4.137,0.961 8.336,2.242 12.481,3.723" /><path
         id="path248"
         style="fill:#ffffff;fill-opacity:1;fill-rule:nonzero;stroke:#ffffff;stroke-width:3;stroke-linecap:butt;stroke-linejoin:miter;stroke-miterlimit:10;stroke-dasharray:none;stroke-opacity:1"
         d="m 2915.004,240.543 8.019,6.922 -10.585,-0.41 z" /><text
         id="text252"
         style="font-variant:normal;font-weight:normal;font-size:60px;font-family:'DejaVu Sans Mono';-inkscape-font-specification:DejaVuSansMono;writing-mode:lr-tb;fill:#60f060;fill-opacity:1;fill-rule:nonzero;stroke:none"
         transform="translate(2363.1602,204)"><tspan
           id="tspan250"
           y="0"
           x="0 36.119999 72 108.12 144 180.12">&lt;nom&gt;:</tspan></text>
<text
         id="text256"
         style="font-variant:normal;font-weight:normal;font-size:60px;font-family:'DejaVu Sans Mono';-inkscape-font-specification:DejaVuSansMono;writing-mode:lr-tb;fill:#60f060;fill-opacity:1;fill-rule:nonzero;stroke:none"
         transform="translate(2579.1602,204)"><tspan
           id="tspan254"
           y="0"
           x="0">∅</tspan></text>
<path
         id="path258"
         style="fill:#777777;fill-opacity:1;fill-rule:nonzero;stroke:#ffffff;stroke-width:3;stroke-linecap:butt;stroke-linejoin:miter;stroke-miterlimit:10;stroke-dasharray:none;stroke-opacity:1"
         d="m 1703.336,231 c 0,18.711 -15.172,33.883 -33.883,33.883 -18.715,0 -33.883,-15.172 -33.883,-33.883 0,-18.711 15.168,-33.883 33.883,-33.883 18.711,0 33.883,15.172 33.883,33.883" /><text
         id="text262"
         style="font-variant:normal;font-weight:normal;font-size:26.00024414px;font-family:'DejaVu Sans Mono';-inkscape-font-specification:DejaVuSansMono;writing-mode:lr-tb;fill:#ffffff;fill-opacity:1;fill-rule:nonzero;stroke:none"
         transform="translate(1653.4531,237.30078)"><tspan
           id="tspan260"
           y="0"
           x="0 15.756147">14</tspan></text>
<path
         id="path264"
         style="fill:none;stroke:#ffffff;stroke-width:3;stroke-linecap:butt;stroke-linejoin:miter;stroke-miterlimit:10;stroke-dasharray:none;stroke-opacity:1"
         d="m 1346.852,233.066 c 55.918,0.079 172.253,0.063 270.66,-1.066 2.515,-0.027 5.101,-0.062 7.707,-0.102" /><path
         id="path266"
         style="fill:#ffffff;fill-opacity:1;fill-rule:nonzero;stroke:#ffffff;stroke-width:3;stroke-linecap:butt;stroke-linejoin:miter;stroke-miterlimit:10;stroke-dasharray:none;stroke-opacity:1"
         d="m 1625.242,228.398 10.055,3.332 -9.942,3.665 z" /><text
         id="text270"
         style="font-variant:normal;font-weight:normal;font-size:60px;font-family:'DejaVu Sans Mono';-inkscape-font-specification:DejaVuSansMono;writing-mode:lr-tb;fill:#60f060;fill-opacity:1;fill-rule:nonzero;stroke:none"
         transform="translate(1364.5117,214)"><tspan
           id="tspan268"
           y="0"
           x="0 36.119999 72 108.12 144 180.12 216">&lt;pl&gt;:a </tspan></text>
<path
         id="path272"
         style="fill:#777777;fill-opacity:1;fill-rule:nonzero;stroke:#ffffff;stroke-width:3;stroke-linecap:butt;stroke-linejoin:miter;stroke-miterlimit:10;stroke-dasharray:none;stroke-opacity:1"
         d="m 1703.336,335 c 0,18.711 -15.172,33.883 -33.883,33.883 -18.715,0 -33.883,-15.172 -33.883,-33.883 0,-18.711 15.168,-33.883 33.883,-33.883 18.711,0 33.883,15.172 33.883,33.883" /><text
         id="text276"
         style="font-variant:normal;font-weight:normal;font-size:26.00024414px;font-family:'DejaVu Sans Mono';-inkscape-font-specification:DejaVuSansMono;writing-mode:lr-tb;fill:#ffffff;fill-opacity:1;fill-rule:nonzero;stroke:none"
         transform="translate(1653.4531,341.30078)"><tspan
           id="tspan274"
           y="0"
           x="0 15.756147">15</tspan></text>
<path
         id="path278"
         style="fill:none;stroke:#ffffff;stroke-width:3;stroke-linecap:butt;stroke-linejoin:miter;stroke-miterlimit:10;stroke-dasharray:none;stroke-opacity:1"
         d="m 1346.637,323.211 c 64.457,2.363 206.847,7.578 278.64,10.207" /><path
         id="path280"
         style="fill:#ffffff;fill-opacity:1;fill-rule:nonzero;stroke:#ffffff;stroke-width:3;stroke-linecap:butt;stroke-linejoin:miter;stroke-miterlimit:10;stroke-dasharray:none;stroke-opacity:1"
         d="m 1625.473,329.922 9.867,3.863 -10.121,3.133 z" /><text
         id="text284"
         style="font-variant:normal;font-weight:normal;font-size:60px;font-family:'DejaVu Sans Mono';-inkscape-font-specification:DejaVuSansMono;writing-mode:lr-tb;fill:#60f060;fill-opacity:1;fill-rule:nonzero;stroke:none"
         transform="translate(1364.5117,305)"><tspan
           id="tspan282"
           y="0"
           x="0 36.119999 72 108.12 144">&lt;pl&gt;:</tspan></text>
<text
         id="text288"
         style="font-variant:normal;font-weight:normal;font-size:60px;font-family:'DejaVu Sans Mono';-inkscape-font-specification:DejaVuSansMono;writing-mode:lr-tb;fill:#60f060;fill-opacity:1;fill-rule:nonzero;stroke:none"
         transform="translate(1544.6317,305)"><tspan
           id="tspan286"
           y="0"
           x="0">а</tspan></text>
<path
         id="path290"
         style="fill:#777777;fill-opacity:1;fill-rule:nonzero;stroke:#ffffff;stroke-width:3;stroke-linecap:butt;stroke-linejoin:miter;stroke-miterlimit:10;stroke-dasharray:none;stroke-opacity:1"
         d="m 2345.102,328 c 0,18.711 -15.172,33.883 -33.883,33.883 -18.715,0 -33.883,-15.172 -33.883,-33.883 0,-18.711 15.168,-33.883 33.883,-33.883 18.711,0 33.883,15.172 33.883,33.883" /><text
         id="text294"
         style="font-variant:normal;font-weight:normal;font-size:26.00024414px;font-family:'DejaVu Sans Mono';-inkscape-font-specification:DejaVuSansMono;writing-mode:lr-tb;fill:#ffffff;fill-opacity:1;fill-rule:nonzero;stroke:none"
         transform="translate(2295.2188,334.30078)"><tspan
           id="tspan292"
           y="0"
           x="0 15.756147">16</tspan></text>
<path
         id="path296"
         style="fill:none;stroke:#ffffff;stroke-width:3;stroke-linecap:butt;stroke-linejoin:miter;stroke-miterlimit:10;stroke-dasharray:none;stroke-opacity:1"
         d="m 1952.324,370.117 c 70.637,-8.312 236.453,-27.824 315.082,-37.078" /><path
         id="path298"
         style="fill:#ffffff;fill-opacity:1;fill-rule:nonzero;stroke:#ffffff;stroke-width:3;stroke-linecap:butt;stroke-linejoin:miter;stroke-miterlimit:10;stroke-dasharray:none;stroke-opacity:1"
         d="m 2267.113,329.547 10.34,2.308 -9.519,4.645 z" /><text
         id="text302"
         style="font-variant:normal;font-weight:normal;font-size:60px;font-family:'DejaVu Sans Mono';-inkscape-font-specification:DejaVuSansMono;writing-mode:lr-tb;fill:#60f060;fill-opacity:1;fill-rule:nonzero;stroke:none"
         transform="translate(1970.2773,316)"><tspan
           id="tspan300"
           y="0"
           x="0 36.119999 72 108.12 144 180.12">&lt;abl&gt;:</tspan></text>
<text
         id="text306"
         style="font-variant:normal;font-weight:normal;font-size:60px;font-family:'DejaVu Sans Mono';-inkscape-font-specification:DejaVuSansMono;writing-mode:lr-tb;fill:#60f060;fill-opacity:1;fill-rule:nonzero;stroke:none"
         transform="translate(2186.2773,316)"><tspan
           id="tspan304"
           y="0"
           x="0">д</tspan></text>
<path
         id="path308"
         style="fill:none;stroke:#ffffff;stroke-width:3;stroke-linecap:butt;stroke-linejoin:miter;stroke-miterlimit:10;stroke-dasharray:none;stroke-opacity:1"
         d="m 1952.055,378.809 c 103.363,14.359 431.929,53.695 700.105,16.191 113.918,-15.93 150.785,-10.93 248.879,-71 9.133,-5.59 17.715,-13.109 25.258,-20.902" /><path
         id="path310"
         style="fill:#ffffff;fill-opacity:1;fill-rule:nonzero;stroke:#ffffff;stroke-width:3;stroke-linecap:butt;stroke-linejoin:miter;stroke-miterlimit:10;stroke-dasharray:none;stroke-opacity:1"
         d="m 2924.133,300.273 9.34,-5.003 -4.18,9.734 z" /><text
         id="text314"
         style="font-variant:normal;font-weight:normal;font-size:60px;font-family:'DejaVu Sans Mono';-inkscape-font-specification:DejaVuSansMono;writing-mode:lr-tb;fill:#60f060;fill-opacity:1;fill-rule:nonzero;stroke:none"
         transform="translate(2363.1602,377)"><tspan
           id="tspan312"
           y="0"
           x="0 36.119999 72 108.12 144 180.12">&lt;nom&gt;:</tspan></text>
<text
         id="text318"
         style="font-variant:normal;font-weight:normal;font-size:60px;font-family:'DejaVu Sans Mono';-inkscape-font-specification:DejaVuSansMono;writing-mode:lr-tb;fill:#60f060;fill-opacity:1;fill-rule:nonzero;stroke:none"
         transform="translate(2579.1602,377)"><tspan
           id="tspan316"
           y="0"
           x="0">∅</tspan></text>
<path
         id="path320"
         style="fill:#777777;fill-opacity:1;fill-rule:nonzero;stroke:#ffffff;stroke-width:3;stroke-linecap:butt;stroke-linejoin:miter;stroke-miterlimit:10;stroke-dasharray:none;stroke-opacity:1"
         d="m 2737.98,151 c 0,18.711 -15.168,33.883 -33.878,33.883 -18.715,0 -33.883,-15.172 -33.883,-33.883 0,-18.711 15.168,-33.883 33.883,-33.883 18.71,0 33.878,15.172 33.878,33.883" /><text
         id="text324"
         style="font-variant:normal;font-weight:normal;font-size:26.00024414px;font-family:'DejaVu Sans Mono';-inkscape-font-specification:DejaVuSansMono;writing-mode:lr-tb;fill:#ffffff;fill-opacity:1;fill-rule:nonzero;stroke:none"
         transform="translate(2688.1016,157.30078)"><tspan
           id="tspan322"
           y="0"
           x="0 15.756147">18</tspan></text>
<path
         id="path326"
         style="fill:none;stroke:#ffffff;stroke-width:3;stroke-linecap:butt;stroke-linejoin:miter;stroke-miterlimit:10;stroke-dasharray:none;stroke-opacity:1"
         d="m 2345.207,151 c 70.547,0 236.039,0 314.789,0" /><path
         id="path328"
         style="fill:#ffffff;fill-opacity:1;fill-rule:nonzero;stroke:#ffffff;stroke-width:3;stroke-linecap:butt;stroke-linejoin:miter;stroke-miterlimit:10;stroke-dasharray:none;stroke-opacity:1"
         d="m 2660.062,147.5 9.997,3.5 -10,3.5 v -7 z" /><text
         id="text332"
         style="font-variant:normal;font-weight:normal;font-size:60px;font-family:'DejaVu Sans Mono';-inkscape-font-specification:DejaVuSansMono;writing-mode:lr-tb;fill:#60f060;fill-opacity:1;fill-rule:nonzero;stroke:none"
         transform="translate(2435.1602,133)"><tspan
           id="tspan330"
           y="0"
           x="0">∅</tspan></text>
<text
         id="text336"
         style="font-variant:normal;font-weight:normal;font-size:60px;font-family:'DejaVu Sans Mono';-inkscape-font-specification:DejaVuSansMono;writing-mode:lr-tb;fill:#60f060;fill-opacity:1;fill-rule:nonzero;stroke:none"
         transform="translate(2471.2802,133)"><tspan
           id="tspan334"
           y="0"
           x="0 35.880001 72">:a </tspan></text>
<path
         id="path338"
         style="fill:none;stroke:#ffffff;stroke-width:3;stroke-linecap:butt;stroke-linejoin:miter;stroke-miterlimit:10;stroke-dasharray:none;stroke-opacity:1"
         d="m 1703.578,231.965 c 39.117,0.648 106.043,0.195 162.817,-7.965 5.531,-0.797 11.335,-1.953 16.96,-3.258" /><path
         id="path340"
         style="fill:#ffffff;fill-opacity:1;fill-rule:nonzero;stroke:#ffffff;stroke-width:3;stroke-linecap:butt;stroke-linejoin:miter;stroke-miterlimit:10;stroke-dasharray:none;stroke-opacity:1"
         d="m 1882.641,217.312 10.55,0.977 -8.855,5.816 z" /><text
         id="text344"
         style="font-variant:normal;font-weight:normal;font-size:60px;font-family:'DejaVu Sans Mono';-inkscape-font-specification:DejaVuSansMono;writing-mode:lr-tb;fill:#60f060;fill-opacity:1;fill-rule:nonzero;stroke:none"
         transform="translate(1721.3945,206)"><tspan
           id="tspan342"
           y="0"
           x="0">∅</tspan></text>
<text
         id="text348"
         style="font-variant:normal;font-weight:normal;font-size:60px;font-family:'DejaVu Sans Mono';-inkscape-font-specification:DejaVuSansMono;writing-mode:lr-tb;fill:#60f060;fill-opacity:1;fill-rule:nonzero;stroke:none"
         transform="translate(1757.5145,206)"><tspan
           id="tspan346"
           y="0"
           x="0 35.880001 72">:r </tspan></text>
<path
         id="path350"
         style="fill:none;stroke:#ffffff;stroke-width:3;stroke-linecap:butt;stroke-linejoin:miter;stroke-miterlimit:10;stroke-dasharray:none;stroke-opacity:1"
         d="m 1703.238,340.18 c 44.082,6.965 122.547,19.359 171.258,27.054" /><path
         id="path352"
         style="fill:#ffffff;fill-opacity:1;fill-rule:nonzero;stroke:#ffffff;stroke-width:3;stroke-linecap:butt;stroke-linejoin:miter;stroke-miterlimit:10;stroke-dasharray:none;stroke-opacity:1"
         d="m 1875.086,363.781 9.328,5.02 -10.422,1.894 z" /><text
         id="text356"
         style="font-variant:normal;font-weight:normal;font-size:60px;font-family:'DejaVu Sans Mono';-inkscape-font-specification:DejaVuSansMono;writing-mode:lr-tb;fill:#60f060;fill-opacity:1;fill-rule:nonzero;stroke:none"
         transform="translate(1721.3945,325)"><tspan
           id="tspan354"
           y="0"
           x="0">∅</tspan></text>
<text
         id="text360"
         style="font-variant:normal;font-weight:normal;font-size:60px;font-family:'DejaVu Sans Mono';-inkscape-font-specification:DejaVuSansMono;writing-mode:lr-tb;fill:#60f060;fill-opacity:1;fill-rule:nonzero;stroke:none"
         transform="translate(1757.5145,325)"><tspan
           id="tspan358"
           y="0"
           x="0">:</tspan></text>
<text
         id="text364"
         style="font-variant:normal;font-weight:normal;font-size:60px;font-family:'DejaVu Sans Mono';-inkscape-font-specification:DejaVuSansMono;writing-mode:lr-tb;fill:#60f060;fill-opacity:1;fill-rule:nonzero;stroke:none"
         transform="translate(1793.3945,325)"><tspan
           id="tspan362"
           y="0"
           x="0">р</tspan></text>
<path
         id="path366"
         style="fill:#777777;fill-opacity:1;fill-rule:nonzero;stroke:#ffffff;stroke-width:3;stroke-linecap:butt;stroke-linejoin:miter;stroke-miterlimit:10;stroke-dasharray:none;stroke-opacity:1"
         d="m 2737.98,311 c 0,18.711 -15.168,33.883 -33.878,33.883 -18.715,0 -33.883,-15.172 -33.883,-33.883 0,-18.711 15.168,-33.883 33.883,-33.883 18.71,0 33.878,15.172 33.878,33.883" /><text
         id="text370"
         style="font-variant:normal;font-weight:normal;font-size:26.00024414px;font-family:'DejaVu Sans Mono';-inkscape-font-specification:DejaVuSansMono;writing-mode:lr-tb;fill:#ffffff;fill-opacity:1;fill-rule:nonzero;stroke:none"
         transform="translate(2688.1016,317.30078)"><tspan
           id="tspan368"
           y="0"
           x="0 15.756147">19</tspan></text>
<path
         id="path372"
         style="fill:none;stroke:#ffffff;stroke-width:3;stroke-linecap:butt;stroke-linejoin:miter;stroke-miterlimit:10;stroke-dasharray:none;stroke-opacity:1"
         d="m 2345.52,326.824 c 60.89,-2.195 194.253,-7.203 306.64,-12.824 2.516,-0.125 5.102,-0.262 7.711,-0.402" /><path
         id="path374"
         style="fill:#ffffff;fill-opacity:1;fill-rule:nonzero;stroke:#ffffff;stroke-width:3;stroke-linecap:butt;stroke-linejoin:miter;stroke-miterlimit:10;stroke-dasharray:none;stroke-opacity:1"
         d="m 2659.77,310.098 10.179,2.941 -9.793,4.051 z" /><text
         id="text378"
         style="font-variant:normal;font-weight:normal;font-size:60px;font-family:'DejaVu Sans Mono';-inkscape-font-specification:DejaVuSansMono;writing-mode:lr-tb;fill:#60f060;fill-opacity:1;fill-rule:nonzero;stroke:none"
         transform="translate(2435.1602,296)"><tspan
           id="tspan376"
           y="0"
           x="0">∅</tspan></text>
<text
         id="text382"
         style="font-variant:normal;font-weight:normal;font-size:60px;font-family:'DejaVu Sans Mono';-inkscape-font-specification:DejaVuSansMono;writing-mode:lr-tb;fill:#60f060;fill-opacity:1;fill-rule:nonzero;stroke:none"
         transform="translate(2471.2802,296)"><tspan
           id="tspan380"
           y="0"
           x="0">:</tspan></text>
<text
         id="text386"
         style="font-variant:normal;font-weight:normal;font-size:60px;font-family:'DejaVu Sans Mono';-inkscape-font-specification:DejaVuSansMono;writing-mode:lr-tb;fill:#60f060;fill-opacity:1;fill-rule:nonzero;stroke:none"
         transform="translate(2507.1602,296)"><tspan
           id="tspan384"
           y="0"
           x="0">а</tspan></text>
<path
         id="path388"
         style="fill:none;stroke:#ffffff;stroke-width:3;stroke-linecap:butt;stroke-linejoin:miter;stroke-miterlimit:10;stroke-dasharray:none;stroke-opacity:1"
         d="m 2737.867,156.375 c 40.528,7.695 110.598,24.492 163.172,55.625 8.125,4.809 15.981,11.047 23.09,17.543" /><path
         id="path390"
         style="fill:#ffffff;fill-opacity:1;fill-rule:nonzero;stroke:#ffffff;stroke-width:3;stroke-linecap:butt;stroke-linejoin:miter;stroke-miterlimit:10;stroke-dasharray:none;stroke-opacity:1"
         d="m 2926.734,227.191 4.793,9.45 -9.636,-4.395 z" /><text
         id="text394"
         style="font-variant:normal;font-weight:normal;font-size:60px;font-family:'DejaVu Sans Mono';-inkscape-font-specification:DejaVuSansMono;writing-mode:lr-tb;fill:#60f060;fill-opacity:1;fill-rule:nonzero;stroke:none"
         transform="translate(2756.0391,143)"><tspan
           id="tspan392"
           y="0"
           x="0">∅</tspan></text>
<text
         id="text398"
         style="font-variant:normal;font-weight:normal;font-size:60px;font-family:'DejaVu Sans Mono';-inkscape-font-specification:DejaVuSansMono;writing-mode:lr-tb;fill:#60f060;fill-opacity:1;fill-rule:nonzero;stroke:none"
         transform="translate(2792.1591,143)"><tspan
           id="tspan396"
           y="0"
           x="0 35.880001 72">:n </tspan></text>
<path
         id="path400"
         style="fill:none;stroke:#ffffff;stroke-width:3;stroke-linecap:butt;stroke-linejoin:miter;stroke-miterlimit:10;stroke-dasharray:none;stroke-opacity:1"
         d="m 2737.723,316.051 c 39.781,4.847 108.492,8.929 163.316,-10.051 6.574,-2.277 13.012,-5.648 19.031,-9.504" /><path
         id="path402"
         style="fill:#ffffff;fill-opacity:1;fill-rule:nonzero;stroke:#ffffff;stroke-width:3;stroke-linecap:butt;stroke-linejoin:miter;stroke-miterlimit:10;stroke-dasharray:none;stroke-opacity:1"
         d="m 2918.352,293.43 10.203,-2.848 -6.203,8.59 z" /><text
         id="text406"
         style="font-variant:normal;font-weight:normal;font-size:60px;font-family:'DejaVu Sans Mono';-inkscape-font-specification:DejaVuSansMono;writing-mode:lr-tb;fill:#60f060;fill-opacity:1;fill-rule:nonzero;stroke:none"
         transform="translate(2756.0391,288)"><tspan
           id="tspan404"
           y="0"
           x="0">∅</tspan></text>
<text
         id="text410"
         style="font-variant:normal;font-weight:normal;font-size:60px;font-family:'DejaVu Sans Mono';-inkscape-font-specification:DejaVuSansMono;writing-mode:lr-tb;fill:#60f060;fill-opacity:1;fill-rule:nonzero;stroke:none"
         transform="translate(2792.1591,288)"><tspan
           id="tspan408"
           y="0"
           x="0">:</tspan></text>
<text
         id="text414"
         style="font-variant:normal;font-weight:normal;font-size:60px;font-family:'DejaVu Sans Mono';-inkscape-font-specification:DejaVuSansMono;writing-mode:lr-tb;fill:#60f060;fill-opacity:1;fill-rule:nonzero;stroke:none"
         transform="translate(2828.0391,288)"><tspan
           id="tspan412"
           y="0"
           x="0">н</tspan></text>
</g></g></svg>