<?xml version="1.0" encoding="UTF-8" standalone="no"?>
<svg
   xmlns:dc="http://purl.org/dc/elements/1.1/"
   xmlns:cc="http://creativecommons.org/ns#"
   xmlns:rdf="http://www.w3.org/1999/02/22-rdf-syntax-ns#"
   xmlns:svg="http://www.w3.org/2000/svg"
   xmlns="http://www.w3.org/2000/svg"
   viewBox="0 0 1281.3333 381.33334"
   height="381.33334"
   width="1281.3333"
   xml:space="preserve"
   id="svg2"
   version="1.1"><metadata
     id="metadata8"><rdf:RDF><cc:Work
         rdf:about=""><dc:format>image/svg+xml</dc:format><dc:type
           rdf:resource="http://purl.org/dc/dcmitype/StillImage" /></cc:Work></rdf:RDF></metadata><defs
     id="defs6" /><g
     transform="matrix(1.3333333,0,0,1.3333333,0,6.2e-6)"
     id="g10"><g
       id="g12"><path
         id="path14"
         style="fill:#777777;fill-opacity:1;fill-rule:nonzero;stroke:none"
         d="m 92.488,220 c 0,14.539 -11.785,26.328 -26.324,26.328 -14.543,0 -26.328,-11.789 -26.328,-26.328 0,-14.539 11.785,-26.328 26.328,-26.328 14.539,0 26.324,11.789 26.324,26.328" /><path
         id="path16"
         style="fill:none;stroke:#ffffff;stroke-width:3;stroke-linecap:butt;stroke-linejoin:miter;stroke-miterlimit:10;stroke-dasharray:none;stroke-opacity:1"
         d="m 92.488,220 c 0,14.539 -11.785,26.328 -26.324,26.328 -14.543,0 -26.328,-11.789 -26.328,-26.328 0,-14.539 11.785,-26.328 26.328,-26.328 14.539,0 26.324,11.789 26.324,26.328" /><text
         id="text20"
         style="font-variant:normal;font-weight:normal;font-size:26.00024414px;font-family:'DejaVu Sans Mono';-inkscape-font-specification:DejaVuSansMono;writing-mode:lr-tb;fill:#ffffff;fill-opacity:1;fill-rule:nonzero;stroke:none"
         transform="translate(58.164062,226.30078)"><tspan
           id="tspan18"
           y="0"
           x="0">0</tspan></text>
<path
         id="path22"
         style="fill:#777777;fill-opacity:1;fill-rule:nonzero;stroke:#ffffff;stroke-width:3;stroke-linecap:butt;stroke-linejoin:miter;stroke-miterlimit:10;stroke-dasharray:none;stroke-opacity:1"
         d="m 444.152,126 c 0,14.539 -11.785,26.328 -26.328,26.328 -14.539,0 -26.324,-11.789 -26.324,-26.328 0,-14.539 11.785,-26.328 26.324,-26.328 14.543,0 26.328,11.789 26.328,26.328" /><text
         id="text26"
         style="font-variant:normal;font-weight:normal;font-size:26.00024414px;font-family:'DejaVu Sans Mono';-inkscape-font-specification:DejaVuSansMono;writing-mode:lr-tb;fill:#ffffff;fill-opacity:1;fill-rule:nonzero;stroke:none"
         transform="translate(409.82422,132.30078)"><tspan
           id="tspan24"
           y="0"
           x="0">1</tspan></text>
<path
         id="path28"
         style="fill:none;stroke:#ffffff;stroke-width:3;stroke-linecap:butt;stroke-linejoin:miter;stroke-miterlimit:10;stroke-dasharray:none;stroke-opacity:1"
         d="m 91.75,213.391 c 61.191,-16.45 220.445,-59.262 290.801,-78.176" /><path
         id="path30"
         style="fill:#ffffff;fill-opacity:1;fill-rule:nonzero;stroke:#ffffff;stroke-width:3;stroke-linecap:butt;stroke-linejoin:miter;stroke-miterlimit:10;stroke-dasharray:none;stroke-opacity:1"
         d="m 381.699,131.82 10.567,0.782 -8.75,5.976 z" /><text
         id="text34"
         style="font-variant:normal;font-weight:normal;font-size:60px;font-family:'DejaVu Sans Mono';-inkscape-font-specification:DejaVuSansMono;writing-mode:lr-tb;fill:#60f060;fill-opacity:1;fill-rule:nonzero;stroke:none"
         transform="translate(110.32422,153)"><tspan
           id="tspan32"
           y="0"
           x="0">я</tspan></text>
<text
         id="text38"
         style="font-variant:normal;font-weight:normal;font-size:60px;font-family:'DejaVu Sans Mono';-inkscape-font-specification:DejaVuSansMono;writing-mode:lr-tb;fill:#60f060;fill-opacity:1;fill-rule:nonzero;stroke:none"
         transform="translate(146.44422,153)"><tspan
           id="tspan36"
           y="0"
           x="0">:</tspan></text>
<text
         id="text42"
         style="font-variant:normal;font-weight:normal;font-size:60px;font-family:'DejaVu Sans Mono';-inkscape-font-specification:DejaVuSansMono;writing-mode:lr-tb;fill:#60f060;fill-opacity:1;fill-rule:nonzero;stroke:none"
         transform="translate(182.32422,153)"><tspan
           id="tspan40"
           y="0"
           x="0">й</tspan></text>
<path
         id="path44"
         style="fill:#777777;fill-opacity:1;fill-rule:nonzero;stroke:none"
         d="m 802.633,203 c 0,14.527 -11.778,26.305 -26.309,26.305 -14.527,0 -26.304,-11.778 -26.304,-26.305 0,-14.527 11.777,-26.305 26.304,-26.305 14.531,0 26.309,11.778 26.309,26.305" /><path
         id="path46"
         style="fill:none;stroke:#ffffff;stroke-width:3;stroke-linecap:butt;stroke-linejoin:miter;stroke-miterlimit:10;stroke-dasharray:none;stroke-opacity:1"
         d="m 802.633,203 c 0,14.527 -11.778,26.305 -26.309,26.305 -14.527,0 -26.304,-11.778 -26.304,-26.305 0,-14.527 11.777,-26.305 26.304,-26.305 14.531,0 26.309,11.778 26.309,26.305" /><path
         id="path48"
         style="fill:none;stroke:#ffffff;stroke-width:3;stroke-linecap:butt;stroke-linejoin:miter;stroke-miterlimit:10;stroke-dasharray:none;stroke-opacity:1"
         d="m 806.652,203 c 0,16.75 -13.578,30.328 -30.328,30.328 C 759.578,233.328 746,219.75 746,203 c 0,-16.75 13.578,-30.328 30.324,-30.328 16.75,0 30.328,13.578 30.328,30.328" /><text
         id="text52"
         style="font-variant:normal;font-weight:normal;font-size:26.00024414px;font-family:'DejaVu Sans Mono';-inkscape-font-specification:DejaVuSansMono;writing-mode:lr-tb;fill:#ffffff;fill-opacity:1;fill-rule:nonzero;stroke:none"
         transform="translate(768.32422,209.30078)"><tspan
           id="tspan50"
           y="0"
           x="0">2</tspan></text>
<path
         id="path54"
         style="fill:none;stroke:#ffffff;stroke-width:3;stroke-linecap:butt;stroke-linejoin:miter;stroke-miterlimit:10;stroke-dasharray:none;stroke-opacity:1"
         d="m 92.547,221.141 c 38.902,1.683 115.609,4.754 180.777,5.859 200.895,3.41 254.305,27.848 452,-8 4.188,-0.758 8.512,-1.773 12.781,-2.926" /><path
         id="path56"
         style="fill:#ffffff;fill-opacity:1;fill-rule:nonzero;stroke:none"
         d="m 737.301,212.664 10.582,0.531 -8.606,6.184 z" /><path
         id="path58"
         style="fill:none;stroke:#ffffff;stroke-width:3;stroke-linecap:butt;stroke-linejoin:miter;stroke-miterlimit:10;stroke-dasharray:none;stroke-opacity:1"
         d="m 737.301,212.664 10.582,0.531 -8.606,6.184 z" /><text
         id="text62"
         style="font-variant:normal;font-weight:normal;font-size:60px;font-family:'DejaVu Sans Mono';-inkscape-font-specification:DejaVuSansMono;writing-mode:lr-tb;fill:#60f060;fill-opacity:1;fill-rule:nonzero;stroke:none"
         transform="translate(273.32422,209)"><tspan
           id="tspan60"
           y="0"
           x="0 36.119999 72">…, </tspan></text>
<text
         id="text66"
         style="font-variant:normal;font-weight:normal;font-size:60px;font-family:'DejaVu Sans Mono';-inkscape-font-specification:DejaVuSansMono;writing-mode:lr-tb;fill:#60f060;fill-opacity:1;fill-rule:nonzero;stroke:none"
         transform="translate(381.44422,209)"><tspan
           id="tspan64"
           y="0"
           x="0">й</tspan></text>
<text
         id="text70"
         style="font-variant:normal;font-weight:normal;font-size:60px;font-family:'DejaVu Sans Mono';-inkscape-font-specification:DejaVuSansMono;writing-mode:lr-tb;fill:#60f060;fill-opacity:1;fill-rule:nonzero;stroke:none"
         transform="translate(417.32422,209)"><tspan
           id="tspan68"
           y="0"
           x="0 36.119999">, </tspan></text>
<text
         id="text74"
         style="font-variant:normal;font-weight:normal;font-size:60px;font-family:'DejaVu Sans Mono';-inkscape-font-specification:DejaVuSansMono;writing-mode:lr-tb;fill:#60f060;fill-opacity:1;fill-rule:nonzero;stroke:none"
         transform="translate(489.32422,209)"><tspan
           id="tspan72"
           y="0"
           x="0">а</tspan></text>
<path
         id="path76"
         style="fill:none;stroke:#ffffff;stroke-width:3;stroke-linecap:butt;stroke-linejoin:miter;stroke-miterlimit:10;stroke-dasharray:none;stroke-opacity:1"
         d="m 443.676,119.973 c 54.621,-11.852 187.73,-33.004 281.648,16.027 13.254,6.918 23.938,19.117 31.973,31.223" /><path
         id="path78"
         style="fill:#ffffff;fill-opacity:1;fill-rule:nonzero;stroke:#ffffff;stroke-width:3;stroke-linecap:butt;stroke-linejoin:miter;stroke-miterlimit:10;stroke-dasharray:none;stroke-opacity:1"
         d="m 760.406,165.602 2.27,10.347 -8.227,-6.676 z" /><text
         id="text82"
         style="font-variant:normal;font-weight:normal;font-size:60px;font-family:'DejaVu Sans Mono';-inkscape-font-specification:DejaVuSansMono;writing-mode:lr-tb;fill:#60f060;fill-opacity:1;fill-rule:nonzero;stroke:none"
         transform="translate(580.32422,88)"><tspan
           id="tspan80"
           y="0"
           x="0">∅</tspan></text>
<text
         id="text86"
         style="font-variant:normal;font-weight:normal;font-size:60px;font-family:'DejaVu Sans Mono';-inkscape-font-specification:DejaVuSansMono;writing-mode:lr-tb;fill:#60f060;fill-opacity:1;fill-rule:nonzero;stroke:none"
         transform="translate(616.44422,88)"><tspan
           id="tspan84"
           y="0"
           x="0">:</tspan></text>
<text
         id="text90"
         style="font-variant:normal;font-weight:normal;font-size:60px;font-family:'DejaVu Sans Mono';-inkscape-font-specification:DejaVuSansMono;writing-mode:lr-tb;fill:#60f060;fill-opacity:1;fill-rule:nonzero;stroke:none"
         transform="translate(652.32422,88)"><tspan
           id="tspan88"
           y="0"
           x="0">а</tspan></text>
<path
         id="path92"
         style="fill:none;stroke:#ffffff;stroke-width:3;stroke-linecap:butt;stroke-linejoin:miter;stroke-miterlimit:10;stroke-dasharray:none;stroke-opacity:1"
         d="M 746.258,207.281 C 698.707,213.664 606.91,223.188 580.324,206 c -16.371,-10.586 -3.211,-27.293 -18,-40 -30.308,-26.047 -76.316,-35.223 -108.023,-38.406" /><path
         id="path94"
         style="fill:#ffffff;fill-opacity:1;fill-rule:nonzero;stroke:#ffffff;stroke-width:3;stroke-linecap:butt;stroke-linejoin:miter;stroke-miterlimit:10;stroke-dasharray:none;stroke-opacity:1"
         d="m 453.809,131.066 -9.668,-4.336 10.261,-2.64 z" /><text
         id="text98"
         style="font-variant:normal;font-weight:normal;font-size:60px;font-family:'DejaVu Sans Mono';-inkscape-font-specification:DejaVuSansMono;writing-mode:lr-tb;fill:#60f060;fill-opacity:1;fill-rule:nonzero;stroke:none"
         transform="translate(580.32422,188)"><tspan
           id="tspan96"
           y="0"
           x="0">я</tspan></text>
<text
         id="text102"
         style="font-variant:normal;font-weight:normal;font-size:60px;font-family:'DejaVu Sans Mono';-inkscape-font-specification:DejaVuSansMono;writing-mode:lr-tb;fill:#60f060;fill-opacity:1;fill-rule:nonzero;stroke:none"
         transform="translate(616.44422,188)"><tspan
           id="tspan100"
           y="0"
           x="0">:</tspan></text>
<text
         id="text106"
         style="font-variant:normal;font-weight:normal;font-size:60px;font-family:'DejaVu Sans Mono';-inkscape-font-specification:DejaVuSansMono;writing-mode:lr-tb;fill:#60f060;fill-opacity:1;fill-rule:nonzero;stroke:none"
         transform="translate(652.32422,188)"><tspan
           id="tspan104"
           y="0"
           x="0">й</tspan></text>
<path
         id="path108"
         style="fill:none;stroke:#ffffff;stroke-width:3;stroke-linecap:butt;stroke-linejoin:miter;stroke-miterlimit:10;stroke-dasharray:none;stroke-opacity:1"
         d="m 755.16,181.457 c -5.308,-13.602 1.746,-26.621 21.164,-26.621 14.567,0 22.176,7.324 22.832,16.723" /><path
         id="path110"
         style="fill:#ffffff;fill-opacity:1;fill-rule:nonzero;stroke:#ffffff;stroke-width:3;stroke-linecap:butt;stroke-linejoin:miter;stroke-miterlimit:10;stroke-dasharray:none;stroke-opacity:1"
         d="m 802.602,172.176 -5.11,9.281 -1.797,-10.441 z" /><text
         id="text114"
         style="font-variant:normal;font-weight:normal;font-size:60px;font-family:'DejaVu Sans Mono';-inkscape-font-specification:DejaVuSansMono;writing-mode:lr-tb;fill:#60f060;fill-opacity:1;fill-rule:nonzero;stroke:none"
         transform="translate(631.82422,136.83594)"><tspan
           id="tspan112"
           y="0"
           x="0 36.119999 72">…, </tspan></text>
<text
         id="text118"
         style="font-variant:normal;font-weight:normal;font-size:60px;font-family:'DejaVu Sans Mono';-inkscape-font-specification:DejaVuSansMono;writing-mode:lr-tb;fill:#60f060;fill-opacity:1;fill-rule:nonzero;stroke:none"
         transform="translate(739.94422,136.83594)"><tspan
           id="tspan116"
           y="0"
           x="0">й</tspan></text>
<text
         id="text122"
         style="font-variant:normal;font-weight:normal;font-size:60px;font-family:'DejaVu Sans Mono';-inkscape-font-specification:DejaVuSansMono;writing-mode:lr-tb;fill:#60f060;fill-opacity:1;fill-rule:nonzero;stroke:none"
         transform="translate(775.82422,136.83594)"><tspan
           id="tspan120"
           y="0"
           x="0 36.119999">, </tspan></text>
<text
         id="text126"
         style="font-variant:normal;font-weight:normal;font-size:60px;font-family:'DejaVu Sans Mono';-inkscape-font-specification:DejaVuSansMono;writing-mode:lr-tb;fill:#60f060;fill-opacity:1;fill-rule:nonzero;stroke:none"
         transform="translate(847.82422,136.83594)"><tspan
           id="tspan124"
           y="0"
           x="0">а</tspan></text>
</g></g></svg>