<?xml version="1.0" encoding="UTF-8" standalone="no"?>
<svg
   xmlns:dc="http://purl.org/dc/elements/1.1/"
   xmlns:cc="http://creativecommons.org/ns#"
   xmlns:rdf="http://www.w3.org/1999/02/22-rdf-syntax-ns#"
   xmlns:svg="http://www.w3.org/2000/svg"
   xmlns="http://www.w3.org/2000/svg"
   viewBox="0 0 1206.6667 244"
   height="244"
   width="1206.6666"
   xml:space="preserve"
   id="svg2"
   version="1.1"><metadata
     id="metadata8"><rdf:RDF><cc:Work
         rdf:about=""><dc:format>image/svg+xml</dc:format><dc:type
           rdf:resource="http://purl.org/dc/dcmitype/StillImage" /><dc:title></dc:title></cc:Work></rdf:RDF></metadata><defs
     id="defs6"><clipPath
       id="clipPath22"
       clipPathUnits="userSpaceOnUse"><path
         id="path20"
         d="M 36,218 H 941 V 35 H 36 Z" /></clipPath></defs><g
     transform="matrix(1.3333333,0,0,-1.3333333,-47.999999,290.66666)"
     id="g10"><g
       id="g12"><path
         id="path14"
         style="fill:#ffffff;fill-opacity:0;fill-rule:nonzero;stroke:none"
         d="M 36,218 H 941 V 35 H 36 Z" /></g><g
       id="g16"><g
         clip-path="url(#clipPath22)"
         id="g18"><path
           id="path26"
           style="fill:#737373;fill-opacity:1;fill-rule:nonzero;stroke:none"
           d="m 76.066,131 c 0,-9.977 -8.089,-18.066 -18.066,-18.066 -9.977,0 -18.066,8.089 -18.066,18.066 0,9.977 8.089,18.066 18.066,18.066 9.977,0 18.066,-8.089 18.066,-18.066 z" /><path
           id="path28"
           style="fill:none;stroke:#ffffff;stroke-width:1;stroke-linecap:butt;stroke-linejoin:miter;stroke-miterlimit:10;stroke-dasharray:none;stroke-opacity:1"
           d="m 76.066,131 c 0,-9.977 -8.089,-18.066 -18.066,-18.066 -9.977,0 -18.066,8.089 -18.066,18.066 0,9.977 8.089,18.066 18.066,18.066 9.977,0 18.066,-8.089 18.066,-18.066 z" /><text
           id="text32"
           style="font-variant:normal;font-weight:normal;font-size:14.00024414px;font-family:'DejaVu Sans';-inkscape-font-specification:DejaVuSans;writing-mode:lr-tb;fill:#ffffff;fill-opacity:1;fill-rule:nonzero;stroke:none"
           transform="matrix(1,0,0,-1,53,126.89844)"><tspan
             id="tspan30"
             y="0"
             x="0">0</tspan></text>
<path
           id="path34"
           style="fill:#737373;fill-opacity:1;fill-rule:nonzero;stroke:#ffffff;stroke-width:1;stroke-linecap:butt;stroke-linejoin:miter;stroke-miterlimit:10;stroke-dasharray:none;stroke-opacity:1"
           d="m 182.066,185 c 0,-9.977 -8.089,-18.066 -18.066,-18.066 -9.977,0 -18.066,8.089 -18.066,18.066 0,9.977 8.089,18.066 18.066,18.066 9.977,0 18.066,-8.089 18.066,-18.066 z" /><text
           id="text38"
           style="font-variant:normal;font-weight:normal;font-size:14.00024414px;font-family:'DejaVu Sans';-inkscape-font-specification:DejaVuSans;writing-mode:lr-tb;fill:#ffffff;fill-opacity:1;fill-rule:nonzero;stroke:none"
           transform="matrix(1,0,0,-1,159,180.89844)"><tspan
             id="tspan36"
             y="0"
             x="0">1</tspan></text>
<path
           id="path40"
           style="fill:none;stroke:#ffffff;stroke-width:1;stroke-linecap:butt;stroke-linejoin:miter;stroke-miterlimit:10;stroke-dasharray:none;stroke-opacity:1"
           d="m 73.605,140.504 c 6.27,3.711 13.606,7.926 20.395,11.496 14.309,7.527 30.629,15.27 43.914,21.359" /><path
           id="path42"
           style="fill:#ffffff;fill-opacity:1;fill-rule:nonzero;stroke:#ffffff;stroke-width:1;stroke-linecap:butt;stroke-linejoin:miter;stroke-miterlimit:10;stroke-dasharray:none;stroke-opacity:1"
           d="m 136.84,176.719 10.555,0.949 -7.661,-7.324 z" /><text
           id="text46"
           style="font-variant:normal;font-weight:normal;font-size:14.00024414px;font-family:'DejaVu Sans';-inkscape-font-specification:DejaVuSans;writing-mode:lr-tb;fill:#ffffff;fill-opacity:1;fill-rule:nonzero;stroke:none"
           transform="matrix(1,0,0,-1,94,171.39844)"><tspan
             id="tspan44"
             y="0"
             x="0 11.984209 16.478287 29.21851">w:w </tspan></text>
<path
           id="path48"
           style="fill:#737373;fill-opacity:1;fill-rule:nonzero;stroke:#ffffff;stroke-width:1;stroke-linecap:butt;stroke-linejoin:miter;stroke-miterlimit:10;stroke-dasharray:none;stroke-opacity:1"
           d="m 182.066,131 c 0,-9.977 -8.089,-18.066 -18.066,-18.066 -9.977,0 -18.066,8.089 -18.066,18.066 0,9.977 8.089,18.066 18.066,18.066 9.977,0 18.066,-8.089 18.066,-18.066 z" /><text
           id="text52"
           style="font-variant:normal;font-weight:normal;font-size:14.00024414px;font-family:'DejaVu Sans';-inkscape-font-specification:DejaVuSans;writing-mode:lr-tb;fill:#ffffff;fill-opacity:1;fill-rule:nonzero;stroke:none"
           transform="matrix(1,0,0,-1,159,126.89844)"><tspan
             id="tspan50"
             y="0"
             x="0">3</tspan></text>
<path
           id="path54"
           style="fill:none;stroke:#ffffff;stroke-width:1;stroke-linecap:butt;stroke-linejoin:miter;stroke-miterlimit:10;stroke-dasharray:none;stroke-opacity:1"
           d="m 76.465,131 c 16.34,0 40.433,0 59.211,0" /><path
           id="path56"
           style="fill:#ffffff;fill-opacity:1;fill-rule:nonzero;stroke:#ffffff;stroke-width:1;stroke-linecap:butt;stroke-linejoin:miter;stroke-miterlimit:10;stroke-dasharray:none;stroke-opacity:1"
           d="m 135.746,134.5 10,-3.5 -10,-3.5 z" /><text
           id="text60"
           style="font-variant:normal;font-weight:normal;font-size:14.00024414px;font-family:'DejaVu Sans';-inkscape-font-specification:DejaVuSans;writing-mode:lr-tb;fill:#ffffff;fill-opacity:1;fill-rule:nonzero;stroke:none"
           transform="matrix(1,0,0,-1,98,135.39844)"><tspan
             id="tspan58"
             y="0"
             x="0 8.2461433 12.726222 20.972366">d:d </tspan></text>
<path
           id="path62"
           style="fill:#737373;fill-opacity:1;fill-rule:nonzero;stroke:#ffffff;stroke-width:1;stroke-linecap:butt;stroke-linejoin:miter;stroke-miterlimit:10;stroke-dasharray:none;stroke-opacity:1"
           d="m 248.824,76 c 0,-13.434 -10.668,-24.32 -23.824,-24.32 -13.156,0 -23.824,10.886 -23.824,24.32 0,13.434 10.668,24.32 23.824,24.32 13.156,0 23.824,-10.886 23.824,-24.32 z" /><text
           id="text66"
           style="font-variant:normal;font-weight:normal;font-size:14.00024414px;font-family:'DejaVu Sans';-inkscape-font-specification:DejaVuSans;writing-mode:lr-tb;fill:#ffffff;fill-opacity:1;fill-rule:nonzero;stroke:none"
           transform="matrix(1,0,0,-1,215.5,71.898438)"><tspan
             id="tspan64"
             y="0"
             x="0 9.0021572">10</tspan></text>
<path
           id="path68"
           style="fill:none;stroke:#ffffff;stroke-width:1;stroke-linecap:butt;stroke-linejoin:miter;stroke-miterlimit:10;stroke-dasharray:none;stroke-opacity:1"
           d="M 73.293,120.832 C 79.52,117.027 86.91,112.922 94,110 125.645,96.957 163.688,87.746 190.605,82.234" /><path
           id="path70"
           style="fill:#ffffff;fill-opacity:1;fill-rule:nonzero;stroke:#ffffff;stroke-width:1;stroke-linecap:butt;stroke-linejoin:miter;stroke-miterlimit:10;stroke-dasharray:none;stroke-opacity:1"
           d="m 191.57,85.613 9.125,-5.379 -10.488,-1.488 z" /><text
           id="text74"
           style="font-variant:normal;font-weight:normal;font-size:14.00024414px;font-family:'DejaVu Sans';-inkscape-font-specification:DejaVuSans;writing-mode:lr-tb;fill:#ffffff;fill-opacity:1;fill-rule:nonzero;stroke:none"
           transform="matrix(1,0,0,-1,98,114.39844)"><tspan
             id="tspan72"
             y="0"
             x="0 8.2461433 12.726222 20.972366">b:b </tspan></text>
<path
           id="path76"
           style="fill:#737373;fill-opacity:1;fill-rule:nonzero;stroke:#ffffff;stroke-width:1;stroke-linecap:butt;stroke-linejoin:miter;stroke-miterlimit:10;stroke-dasharray:none;stroke-opacity:1"
           d="m 358.066,185 c 0,-9.977 -8.089,-18.066 -18.066,-18.066 -9.977,0 -18.066,8.089 -18.066,18.066 0,9.977 8.089,18.066 18.066,18.066 9.977,0 18.066,-8.089 18.066,-18.066 z" /><text
           id="text80"
           style="font-variant:normal;font-weight:normal;font-size:14.00024414px;font-family:'DejaVu Sans';-inkscape-font-specification:DejaVuSans;writing-mode:lr-tb;fill:#ffffff;fill-opacity:1;fill-rule:nonzero;stroke:none"
           transform="matrix(1,0,0,-1,335,180.89844)"><tspan
             id="tspan78"
             y="0"
             x="0">2</tspan></text>
<path
           id="path82"
           style="fill:none;stroke:#ffffff;stroke-width:1;stroke-linecap:butt;stroke-linejoin:miter;stroke-miterlimit:10;stroke-dasharray:none;stroke-opacity:1"
           d="m 182.172,185 c 30.644,0 92.816,0 129.316,0" /><path
           id="path84"
           style="fill:#ffffff;fill-opacity:1;fill-rule:nonzero;stroke:#ffffff;stroke-width:1;stroke-linecap:butt;stroke-linejoin:miter;stroke-miterlimit:10;stroke-dasharray:none;stroke-opacity:1"
           d="m 311.926,188.5 10,-3.5 -10,-3.5 z" /><text
           id="text88"
           style="font-variant:normal;font-weight:normal;font-size:14.00024414px;font-family:'DejaVu Sans';-inkscape-font-specification:DejaVuSans;writing-mode:lr-tb;fill:#ffffff;fill-opacity:1;fill-rule:nonzero;stroke:none"
           transform="matrix(1,0,0,-1,212,189.39844)"><tspan
             id="tspan86"
             y="0"
             x="0 8.2321434 12.726222 20.958364">o:o </tspan></text>
<path
           id="path90"
           style="fill:#737373;fill-opacity:1;fill-rule:nonzero;stroke:#ffffff;stroke-width:1;stroke-linecap:butt;stroke-linejoin:miter;stroke-miterlimit:10;stroke-dasharray:none;stroke-opacity:1"
           d="m 527.066,165 c 0,-9.977 -8.089,-18.066 -18.066,-18.066 -9.977,0 -18.066,8.089 -18.066,18.066 0,9.977 8.089,18.066 18.066,18.066 9.977,0 18.066,-8.089 18.066,-18.066 z" /><text
           id="text94"
           style="font-variant:normal;font-weight:normal;font-size:14.00024414px;font-family:'DejaVu Sans';-inkscape-font-specification:DejaVuSans;writing-mode:lr-tb;fill:#ffffff;fill-opacity:1;fill-rule:nonzero;stroke:none"
           transform="matrix(1,0,0,-1,504,160.89844)"><tspan
             id="tspan92"
             y="0"
             x="0">6</tspan></text>
<path
           id="path96"
           style="fill:none;stroke:#ffffff;stroke-width:1;stroke-linecap:butt;stroke-linejoin:miter;stroke-miterlimit:10;stroke-dasharray:none;stroke-opacity:1"
           d="M 357.965,183.164 C 382.422,180.629 427.562,175.816 466,171 c 4.887,-0.613 10.074,-1.301 15.098,-1.992" /><path
           id="path98"
           style="fill:#ffffff;fill-opacity:1;fill-rule:nonzero;stroke:#ffffff;stroke-width:1;stroke-linecap:butt;stroke-linejoin:miter;stroke-miterlimit:10;stroke-dasharray:none;stroke-opacity:1"
           d="m 481.602,172.473 9.421,-4.852 -10.39,-2.082 z" /><text
           id="text102"
           style="font-variant:normal;font-weight:normal;font-size:14.00024414px;font-family:'DejaVu Sans';-inkscape-font-specification:DejaVuSans;writing-mode:lr-tb;fill:#ffffff;fill-opacity:1;fill-rule:nonzero;stroke:none"
           transform="matrix(1,0,0,-1,392.5,185.39844)"><tspan
             id="tspan100"
             y="0"
             x="0 3.7380652 8.2321434 11.970208">l:l </tspan></text>
<path
           id="path104"
           style="fill:#737373;fill-opacity:1;fill-rule:nonzero;stroke:#ffffff;stroke-width:1;stroke-linecap:butt;stroke-linejoin:miter;stroke-miterlimit:10;stroke-dasharray:none;stroke-opacity:1"
           d="m 304.066,131 c 0,-9.977 -8.089,-18.066 -18.066,-18.066 -9.977,0 -18.066,8.089 -18.066,18.066 0,9.977 8.089,18.066 18.066,18.066 9.977,0 18.066,-8.089 18.066,-18.066 z" /><text
           id="text108"
           style="font-variant:normal;font-weight:normal;font-size:14.00024414px;font-family:'DejaVu Sans';-inkscape-font-specification:DejaVuSans;writing-mode:lr-tb;fill:#ffffff;fill-opacity:1;fill-rule:nonzero;stroke:none"
           transform="matrix(1,0,0,-1,281,126.89844)"><tspan
             id="tspan106"
             y="0"
             x="0">4</tspan></text>
<path
           id="path110"
           style="fill:none;stroke:#ffffff;stroke-width:1;stroke-linecap:butt;stroke-linejoin:miter;stroke-miterlimit:10;stroke-dasharray:none;stroke-opacity:1"
           d="m 182,131 c 20.004,0 52.559,0 75.918,0" /><path
           id="path112"
           style="fill:#ffffff;fill-opacity:1;fill-rule:nonzero;stroke:#ffffff;stroke-width:1;stroke-linecap:butt;stroke-linejoin:miter;stroke-miterlimit:10;stroke-dasharray:none;stroke-opacity:1"
           d="m 257.926,134.5 10,-3.5 -10,-3.5 z" /><text
           id="text116"
           style="font-variant:normal;font-weight:normal;font-size:14.00024414px;font-family:'DejaVu Sans';-inkscape-font-specification:DejaVuSans;writing-mode:lr-tb;fill:#ffffff;fill-opacity:1;fill-rule:nonzero;stroke:none"
           transform="matrix(1,0,0,-1,208,135.39844)"><tspan
             id="tspan114"
             y="0"
             x="0 11.984209 16.478287 29.21851">w:w </tspan></text>
<path
           id="path118"
           style="fill:#737373;fill-opacity:1;fill-rule:nonzero;stroke:#ffffff;stroke-width:1;stroke-linecap:butt;stroke-linejoin:miter;stroke-miterlimit:10;stroke-dasharray:none;stroke-opacity:1"
           d="m 419.066,131 c 0,-9.977 -8.089,-18.066 -18.066,-18.066 -9.977,0 -18.066,8.089 -18.066,18.066 0,9.977 8.089,18.066 18.066,18.066 9.977,0 18.066,-8.089 18.066,-18.066 z" /><text
           id="text122"
           style="font-variant:normal;font-weight:normal;font-size:14.00024414px;font-family:'DejaVu Sans';-inkscape-font-specification:DejaVuSans;writing-mode:lr-tb;fill:#ffffff;fill-opacity:1;fill-rule:nonzero;stroke:none"
           transform="matrix(1,0,0,-1,396,126.89844)"><tspan
             id="tspan120"
             y="0"
             x="0">5</tspan></text>
<path
           id="path124"
           style="fill:none;stroke:#ffffff;stroke-width:1;stroke-linecap:butt;stroke-linejoin:miter;stroke-miterlimit:10;stroke-dasharray:none;stroke-opacity:1"
           d="m 304.223,131 c 18.422,0 47.144,0 68.519,0" /><path
           id="path126"
           style="fill:#ffffff;fill-opacity:1;fill-rule:nonzero;stroke:#ffffff;stroke-width:1;stroke-linecap:butt;stroke-linejoin:miter;stroke-miterlimit:10;stroke-dasharray:none;stroke-opacity:1"
           d="m 372.863,134.5 10,-3.5 -10,-3.5 z" /><text
           id="text130"
           style="font-variant:normal;font-weight:normal;font-size:14.00024414px;font-family:'DejaVu Sans';-inkscape-font-specification:DejaVuSans;writing-mode:lr-tb;fill:#ffffff;fill-opacity:1;fill-rule:nonzero;stroke:none"
           transform="matrix(1,0,0,-1,327,135.39844)"><tspan
             id="tspan128"
             y="0"
             x="0 8.2321434 12.726222 20.958364">a:a </tspan></text>
<path
           id="path132"
           style="fill:none;stroke:#ffffff;stroke-width:1;stroke-linecap:butt;stroke-linejoin:miter;stroke-miterlimit:10;stroke-dasharray:none;stroke-opacity:1"
           d="m 418.352,136.461 c 17.164,5.406 43.675,13.75 63.605,20.023" /><path
           id="path134"
           style="fill:#ffffff;fill-opacity:1;fill-rule:nonzero;stroke:#ffffff;stroke-width:1;stroke-linecap:butt;stroke-linejoin:miter;stroke-miterlimit:10;stroke-dasharray:none;stroke-opacity:1"
           d="m 481.102,159.887 10.589,-0.336 -8.488,-6.34 z" /><text
           id="text138"
           style="font-variant:normal;font-weight:normal;font-size:14.00024414px;font-family:'DejaVu Sans';-inkscape-font-specification:DejaVuSans;writing-mode:lr-tb;fill:#ffffff;fill-opacity:1;fill-rule:nonzero;stroke:none"
           transform="matrix(1,0,0,-1,444,155.39844)"><tspan
             id="tspan136"
             y="0"
             x="0 5.9921045 10.486183 16.478287">r:r </tspan></text>
<path
           id="path140"
           style="fill:#737373;fill-opacity:1;fill-rule:nonzero;stroke:none"
           d="m 639.066,196 c 0,-9.977 -8.089,-18.066 -18.066,-18.066 -9.977,0 -18.066,8.089 -18.066,18.066 0,9.977 8.089,18.066 18.066,18.066 9.977,0 18.066,-8.089 18.066,-18.066 z" /><path
           id="path142"
           style="fill:none;stroke:#ffffff;stroke-width:1;stroke-linecap:butt;stroke-linejoin:miter;stroke-miterlimit:10;stroke-dasharray:none;stroke-opacity:1"
           d="m 639.066,196 c 0,-9.977 -8.089,-18.066 -18.066,-18.066 -9.977,0 -18.066,8.089 -18.066,18.066 0,9.977 8.089,18.066 18.066,18.066 9.977,0 18.066,-8.089 18.066,-18.066 z" /><text
           id="text146"
           style="font-variant:normal;font-weight:normal;font-size:14.00024414px;font-family:'DejaVu Sans';-inkscape-font-specification:DejaVuSans;writing-mode:lr-tb;fill:#ffffff;fill-opacity:1;fill-rule:nonzero;stroke:none"
           transform="matrix(1,0,0,-1,616,191.89844)"><tspan
             id="tspan144"
             y="0"
             x="0">7</tspan></text>
<path
           id="path148"
           style="fill:none;stroke:#ffffff;stroke-width:1;stroke-linecap:butt;stroke-linejoin:miter;stroke-miterlimit:10;stroke-dasharray:none;stroke-opacity:1"
           d="m 526.5,169.844 c 18,4.98 46.285,12.812 67.223,18.605" /><path
           id="path150"
           style="fill:#ffffff;fill-opacity:1;fill-rule:nonzero;stroke:#ffffff;stroke-width:1;stroke-linecap:butt;stroke-linejoin:miter;stroke-miterlimit:10;stroke-dasharray:none;stroke-opacity:1"
           d="m 593.051,191.895 10.57,-0.704 -8.703,-6.043 z" /><text
           id="text154"
           style="font-variant:normal;font-weight:normal;font-size:14.00024414px;font-family:'DejaVu Sans';-inkscape-font-specification:DejaVuSans;writing-mode:lr-tb;fill:#ffffff;fill-opacity:1;fill-rule:nonzero;stroke:none"
           transform="matrix(1,0,0,-1,554,187.39844)"><tspan
             id="tspan152"
             y="0"
             x="0 7.4901304 11.970208 16.478287">v:f </tspan></text>
<path
           id="path156"
           style="fill:#737373;fill-opacity:1;fill-rule:nonzero;stroke:#ffffff;stroke-width:1;stroke-linecap:butt;stroke-linejoin:miter;stroke-miterlimit:10;stroke-dasharray:none;stroke-opacity:1"
           d="m 639.066,142 c 0,-9.977 -8.089,-18.066 -18.066,-18.066 -9.977,0 -18.066,8.089 -18.066,18.066 0,9.977 8.089,18.066 18.066,18.066 9.977,0 18.066,-8.089 18.066,-18.066 z" /><text
           id="text160"
           style="font-variant:normal;font-weight:normal;font-size:14.00024414px;font-family:'DejaVu Sans';-inkscape-font-specification:DejaVuSans;writing-mode:lr-tb;fill:#ffffff;fill-opacity:1;fill-rule:nonzero;stroke:none"
           transform="matrix(1,0,0,-1,616,137.89844)"><tspan
             id="tspan158"
             y="0"
             x="0">9</tspan></text>
<path
           id="path162"
           style="fill:none;stroke:#ffffff;stroke-width:1;stroke-linecap:butt;stroke-linejoin:miter;stroke-miterlimit:10;stroke-dasharray:none;stroke-opacity:1"
           d="M 526.461,159.641 C 534.23,157.383 543.52,154.852 552,153 c 13.426,-2.934 28.48,-5.426 41.094,-7.289" /><path
           id="path164"
           style="fill:#ffffff;fill-opacity:1;fill-rule:nonzero;stroke:#ffffff;stroke-width:1;stroke-linecap:butt;stroke-linejoin:miter;stroke-miterlimit:10;stroke-dasharray:none;stroke-opacity:1"
           d="m 593.617,149.172 9.406,-4.879 -10.394,-2.055 z" /><text
           id="text168"
           style="font-variant:normal;font-weight:normal;font-size:14.00024414px;font-family:'DejaVu Sans';-inkscape-font-specification:DejaVuSans;writing-mode:lr-tb;fill:#ffffff;fill-opacity:1;fill-rule:nonzero;stroke:none"
           transform="matrix(1,0,0,-1,556,157.39844)"><tspan
             id="tspan166"
             y="0"
             x="0 3.7520654 8.2321434 12.740222">f:f </tspan></text>
<path
           id="path170"
           style="fill:#737373;fill-opacity:1;fill-rule:nonzero;stroke:none"
           d="m 777.066,190 c 0,-9.977 -8.089,-18.066 -18.066,-18.066 -9.977,0 -18.066,8.089 -18.066,18.066 0,9.977 8.089,18.066 18.066,18.066 9.977,0 18.066,-8.089 18.066,-18.066 z" /><path
           id="path172"
           style="fill:none;stroke:#ffffff;stroke-width:1;stroke-linecap:butt;stroke-linejoin:miter;stroke-miterlimit:10;stroke-dasharray:none;stroke-opacity:1"
           d="m 777.066,190 c 0,-9.977 -8.089,-18.066 -18.066,-18.066 -9.977,0 -18.066,8.089 -18.066,18.066 0,9.977 8.089,18.066 18.066,18.066 9.977,0 18.066,-8.089 18.066,-18.066 z" /><text
           id="text176"
           style="font-variant:normal;font-weight:normal;font-size:14.00024414px;font-family:'DejaVu Sans';-inkscape-font-specification:DejaVuSans;writing-mode:lr-tb;fill:#ffffff;fill-opacity:1;fill-rule:nonzero;stroke:none"
           transform="matrix(1,0,0,-1,754,185.89844)"><tspan
             id="tspan174"
             y="0"
             x="0">8</tspan></text>
<path
           id="path178"
           style="fill:none;stroke:#ffffff;stroke-width:1;stroke-linecap:butt;stroke-linejoin:miter;stroke-miterlimit:10;stroke-dasharray:none;stroke-opacity:1"
           d="m 639.043,195.215 c 23.348,-1.016 64.285,-2.793 91.754,-3.988" /><path
           id="path180"
           style="fill:#ffffff;fill-opacity:1;fill-rule:nonzero;stroke:#ffffff;stroke-width:1;stroke-linecap:butt;stroke-linejoin:miter;stroke-miterlimit:10;stroke-dasharray:none;stroke-opacity:1"
           d="m 731.117,194.715 9.836,-3.93 -10.141,-3.062 z" /><text
           id="text184"
           style="font-variant:normal;font-weight:normal;font-size:14.00024414px;font-family:'DejaVu Sans';-inkscape-font-specification:DejaVuSans;writing-mode:lr-tb;fill:#ffffff;fill-opacity:1;fill-rule:nonzero;stroke:none"
           transform="matrix(1,0,0,-1,664.5,198.39844)"><tspan
             id="tspan182"
             y="0"
             x="0 8.2461433 12.740222 24.72443 33.712589 45.696796">e:&lt;n&gt; </tspan></text>
<path
           id="path186"
           style="fill:#737373;fill-opacity:1;fill-rule:nonzero;stroke:none"
           d="m 930.895,130 c 0,-13.434 -10.7,-24.32 -23.895,-24.32 -13.195,0 -23.895,10.886 -23.895,24.32 0,13.434 10.7,24.32 23.895,24.32 13.195,0 23.895,-10.886 23.895,-24.32 z" /><path
           id="path188"
           style="fill:none;stroke:#ffffff;stroke-width:1;stroke-linecap:butt;stroke-linejoin:miter;stroke-miterlimit:10;stroke-dasharray:none;stroke-opacity:1"
           d="m 930.895,130 c 0,-13.434 -10.7,-24.32 -23.895,-24.32 -13.195,0 -23.895,10.886 -23.895,24.32 0,13.434 10.7,24.32 23.895,24.32 13.195,0 23.895,-10.886 23.895,-24.32 z" /><path
           id="path190"
           style="fill:none;stroke:#ffffff;stroke-width:1;stroke-linecap:butt;stroke-linejoin:miter;stroke-miterlimit:10;stroke-dasharray:none;stroke-opacity:1"
           d="m 934.824,130 c 0,-15.641 -12.457,-28.32 -27.824,-28.32 -15.367,0 -27.824,12.679 -27.824,28.32 0,15.641 12.457,28.32 27.824,28.32 15.367,0 27.824,-12.679 27.824,-28.32 z" /><text
           id="text194"
           style="font-variant:normal;font-weight:normal;font-size:14.00024414px;font-family:'DejaVu Sans';-inkscape-font-specification:DejaVuSans;writing-mode:lr-tb;fill:#ffffff;fill-opacity:1;fill-rule:nonzero;stroke:none"
           transform="matrix(1,0,0,-1,897.5,125.89844)"><tspan
             id="tspan192"
             y="0"
             x="0 9.0021572">16</tspan></text>
<path
           id="path196"
           style="fill:none;stroke:#ffffff;stroke-width:1;stroke-linecap:butt;stroke-linejoin:miter;stroke-miterlimit:10;stroke-dasharray:none;stroke-opacity:1"
           d="M 775.906,183.777 C 796.051,176.293 830.672,163.203 860,151 c 3.699,-1.539 7.547,-3.184 11.375,-4.852" /><path
           id="path198"
           style="fill:#ffffff;fill-opacity:1;fill-rule:nonzero;stroke:#ffffff;stroke-width:1;stroke-linecap:butt;stroke-linejoin:miter;stroke-miterlimit:10;stroke-dasharray:none;stroke-opacity:1"
           d="m 873.016,149.25 7.738,-7.234 -10.563,0.828 z" /><text
           id="text202"
           style="font-variant:normal;font-weight:normal;font-size:14.00024414px;font-family:'DejaVu Sans';-inkscape-font-specification:DejaVuSans;writing-mode:lr-tb;fill:#ffffff;fill-opacity:1;fill-rule:nonzero;stroke:none"
           transform="matrix(1,0,0,-1,805,177.39844)"><tspan
             id="tspan200"
             y="0"
             x="0 6.7341175 11.228196 23.212404 31.444548 35.182613 47.18082">s:&lt;pl&gt; </tspan></text>
<path
           id="path204"
           style="fill:#737373;fill-opacity:1;fill-rule:nonzero;stroke:#ffffff;stroke-width:1;stroke-linecap:butt;stroke-linejoin:miter;stroke-miterlimit:10;stroke-dasharray:none;stroke-opacity:1"
           d="m 782.824,130 c 0,-13.434 -10.668,-24.32 -23.824,-24.32 -13.156,0 -23.824,10.886 -23.824,24.32 0,13.434 10.668,24.32 23.824,24.32 13.156,0 23.824,-10.886 23.824,-24.32 z" /><text
           id="text208"
           style="font-variant:normal;font-weight:normal;font-size:14.00024414px;font-family:'DejaVu Sans';-inkscape-font-specification:DejaVuSans;writing-mode:lr-tb;fill:#ffffff;fill-opacity:1;fill-rule:nonzero;stroke:none"
           transform="matrix(1,0,0,-1,749.5,125.89844)"><tspan
             id="tspan206"
             y="0"
             x="0 9.0021572">15</tspan></text>
<path
           id="path210"
           style="fill:none;stroke:#ffffff;stroke-width:1;stroke-linecap:butt;stroke-linejoin:miter;stroke-miterlimit:10;stroke-dasharray:none;stroke-opacity:1"
           d="m 639.043,140.43 c 21.539,-1.871 58.055,-5.047 85.152,-7.403" /><path
           id="path212"
           style="fill:#ffffff;fill-opacity:1;fill-rule:nonzero;stroke:#ffffff;stroke-width:1;stroke-linecap:butt;stroke-linejoin:miter;stroke-miterlimit:10;stroke-dasharray:none;stroke-opacity:1"
           d="m 724.773,136.488 9.661,-4.351 -10.266,-2.621 z" /><text
           id="text216"
           style="font-variant:normal;font-weight:normal;font-size:14.00024414px;font-family:'DejaVu Sans';-inkscape-font-specification:DejaVuSans;writing-mode:lr-tb;fill:#ffffff;fill-opacity:1;fill-rule:nonzero;stroke:none"
           transform="matrix(1,0,0,-1,664,142.39844)"><tspan
             id="tspan214"
             y="0"
             x="0 9.0021572 13.482235 25.466444 34.454601 46.452808">0:&lt;n&gt; </tspan></text>
<path
           id="path218"
           style="fill:#737373;fill-opacity:1;fill-rule:nonzero;stroke:none"
           d="m 424.824,71 c 0,-13.434 -10.668,-24.32 -23.824,-24.32 -13.156,0 -23.824,10.886 -23.824,24.32 0,13.434 10.668,24.32 23.824,24.32 13.156,0 23.824,-10.886 23.824,-24.32 z" /><path
           id="path220"
           style="fill:none;stroke:#ffffff;stroke-width:1;stroke-linecap:butt;stroke-linejoin:miter;stroke-miterlimit:10;stroke-dasharray:none;stroke-opacity:1"
           d="m 424.824,71 c 0,-13.434 -10.668,-24.32 -23.824,-24.32 -13.156,0 -23.824,10.886 -23.824,24.32 0,13.434 10.668,24.32 23.824,24.32 13.156,0 23.824,-10.886 23.824,-24.32 z" /><text
           id="text224"
           style="font-variant:normal;font-weight:normal;font-size:14.00024414px;font-family:'DejaVu Sans';-inkscape-font-specification:DejaVuSans;writing-mode:lr-tb;fill:#ffffff;fill-opacity:1;fill-rule:nonzero;stroke:none"
           transform="matrix(1,0,0,-1,391.5,66.898438)"><tspan
             id="tspan222"
             y="0"
             x="0 9.0021572">11</tspan></text>
<path
           id="path226"
           style="fill:none;stroke:#ffffff;stroke-width:1;stroke-linecap:butt;stroke-linejoin:miter;stroke-miterlimit:10;stroke-dasharray:none;stroke-opacity:1"
           d="m 249.844,75.293 c 30.398,-0.863 82.047,-2.328 116.383,-3.305" /><path
           id="path228"
           style="fill:#ffffff;fill-opacity:1;fill-rule:nonzero;stroke:#ffffff;stroke-width:1;stroke-linecap:butt;stroke-linejoin:miter;stroke-miterlimit:10;stroke-dasharray:none;stroke-opacity:1"
           d="m 366.387,75.484 9.894,-3.781 -10.093,-3.215 z" /><text
           id="text232"
           style="font-variant:normal;font-weight:normal;font-size:14.00024414px;font-family:'DejaVu Sans';-inkscape-font-specification:DejaVuSans;writing-mode:lr-tb;fill:#ffffff;fill-opacity:1;fill-rule:nonzero;stroke:none"
           transform="matrix(1,0,0,-1,277.5,79.398438)"><tspan
             id="tspan230"
             y="0"
             x="0 3.7380652 8.2321434 11.970208">i:i </tspan></text>
<path
           id="path234"
           style="fill:#737373;fill-opacity:1;fill-rule:nonzero;stroke:none"
           d="m 532.824,71 c 0,-13.434 -10.668,-24.32 -23.824,-24.32 -13.156,0 -23.824,10.886 -23.824,24.32 0,13.434 10.668,24.32 23.824,24.32 13.156,0 23.824,-10.886 23.824,-24.32 z" /><path
           id="path236"
           style="fill:none;stroke:#ffffff;stroke-width:1;stroke-linecap:butt;stroke-linejoin:miter;stroke-miterlimit:10;stroke-dasharray:none;stroke-opacity:1"
           d="m 532.824,71 c 0,-13.434 -10.668,-24.32 -23.824,-24.32 -13.156,0 -23.824,10.886 -23.824,24.32 0,13.434 10.668,24.32 23.824,24.32 13.156,0 23.824,-10.886 23.824,-24.32 z" /><text
           id="text240"
           style="font-variant:normal;font-weight:normal;font-size:14.00024414px;font-family:'DejaVu Sans';-inkscape-font-specification:DejaVuSans;writing-mode:lr-tb;fill:#ffffff;fill-opacity:1;fill-rule:nonzero;stroke:none"
           transform="matrix(1,0,0,-1,499.5,66.898438)"><tspan
             id="tspan238"
             y="0"
             x="0 9.0021572">12</tspan></text>
<path
           id="path242"
           style="fill:none;stroke:#ffffff;stroke-width:1;stroke-linecap:butt;stroke-linejoin:miter;stroke-miterlimit:10;stroke-dasharray:none;stroke-opacity:1"
           d="m 425.508,71 c 14.258,0 32.476,0 48.254,0" /><path
           id="path244"
           style="fill:#ffffff;fill-opacity:1;fill-rule:nonzero;stroke:#ffffff;stroke-width:1;stroke-linecap:butt;stroke-linejoin:miter;stroke-miterlimit:10;stroke-dasharray:none;stroke-opacity:1"
           d="m 474.215,74.5 10,-3.5 -10,-3.5 z" /><text
           id="text248"
           style="font-variant:normal;font-weight:normal;font-size:14.00024414px;font-family:'DejaVu Sans';-inkscape-font-specification:DejaVuSans;writing-mode:lr-tb;fill:#ffffff;fill-opacity:1;fill-rule:nonzero;stroke:none"
           transform="matrix(1,0,0,-1,444,75.398438)"><tspan
             id="tspan246"
             y="0"
             x="0 5.9921045 10.486183 16.478287">r:r </tspan></text>
<path
           id="path250"
           style="fill:#737373;fill-opacity:1;fill-rule:nonzero;stroke:none"
           d="m 644.824,71 c 0,-13.434 -10.668,-24.32 -23.824,-24.32 -13.156,0 -23.824,10.886 -23.824,24.32 0,13.434 10.668,24.32 23.824,24.32 13.156,0 23.824,-10.886 23.824,-24.32 z" /><path
           id="path252"
           style="fill:none;stroke:#ffffff;stroke-width:1;stroke-linecap:butt;stroke-linejoin:miter;stroke-miterlimit:10;stroke-dasharray:none;stroke-opacity:1"
           d="m 644.824,71 c 0,-13.434 -10.668,-24.32 -23.824,-24.32 -13.156,0 -23.824,10.886 -23.824,24.32 0,13.434 10.668,24.32 23.824,24.32 13.156,0 23.824,-10.886 23.824,-24.32 z" /><text
           id="text256"
           style="font-variant:normal;font-weight:normal;font-size:14.00024414px;font-family:'DejaVu Sans';-inkscape-font-specification:DejaVuSans;writing-mode:lr-tb;fill:#ffffff;fill-opacity:1;fill-rule:nonzero;stroke:none"
           transform="matrix(1,0,0,-1,611.5,66.898438)"><tspan
             id="tspan254"
             y="0"
             x="0 9.0021572">13</tspan></text>
<path
           id="path258"
           style="fill:none;stroke:#ffffff;stroke-width:1;stroke-linecap:butt;stroke-linejoin:miter;stroke-miterlimit:10;stroke-dasharray:none;stroke-opacity:1"
           d="m 533.578,71 c 15.465,0 35.656,0 52.738,0" /><path
           id="path260"
           style="fill:#ffffff;fill-opacity:1;fill-rule:nonzero;stroke:#ffffff;stroke-width:1;stroke-linecap:butt;stroke-linejoin:miter;stroke-miterlimit:10;stroke-dasharray:none;stroke-opacity:1"
           d="m 586.477,74.5 10,-3.5 -10,-3.5 z" /><text
           id="text264"
           style="font-variant:normal;font-weight:normal;font-size:14.00024414px;font-family:'DejaVu Sans';-inkscape-font-specification:DejaVuSans;writing-mode:lr-tb;fill:#ffffff;fill-opacity:1;fill-rule:nonzero;stroke:none"
           transform="matrix(1,0,0,-1,552,75.398438)"><tspan
             id="tspan262"
             y="0"
             x="0 8.2461433 12.726222 20.972366">d:d </tspan></text>
<path
           id="path266"
           style="fill:#737373;fill-opacity:1;fill-rule:nonzero;stroke:none"
           d="m 782.824,64 c 0,-13.434 -10.668,-24.32 -23.824,-24.32 -13.156,0 -23.824,10.886 -23.824,24.32 0,13.434 10.668,24.32 23.824,24.32 13.156,0 23.824,-10.886 23.824,-24.32 z" /><path
           id="path268"
           style="fill:none;stroke:#ffffff;stroke-width:1;stroke-linecap:butt;stroke-linejoin:miter;stroke-miterlimit:10;stroke-dasharray:none;stroke-opacity:1"
           d="m 782.824,64 c 0,-13.434 -10.668,-24.32 -23.824,-24.32 -13.156,0 -23.824,10.886 -23.824,24.32 0,13.434 10.668,24.32 23.824,24.32 13.156,0 23.824,-10.886 23.824,-24.32 z" /><text
           id="text272"
           style="font-variant:normal;font-weight:normal;font-size:14.00024414px;font-family:'DejaVu Sans';-inkscape-font-specification:DejaVuSans;writing-mode:lr-tb;fill:#ffffff;fill-opacity:1;fill-rule:nonzero;stroke:none"
           transform="matrix(1,0,0,-1,749.5,59.898438)"><tspan
             id="tspan270"
             y="0"
             x="0 9.0021572">14</tspan></text>
<path
           id="path274"
           style="fill:none;stroke:#ffffff;stroke-width:1;stroke-linecap:butt;stroke-linejoin:miter;stroke-miterlimit:10;stroke-dasharray:none;stroke-opacity:1"
           d="M 645.477,66.316 C 651.508,65.355 657.969,64.488 664,64 c 19.926,-1.609 42.281,-1.695 60.297,-1.34" /><path
           id="path276"
           style="fill:#ffffff;fill-opacity:1;fill-rule:nonzero;stroke:#ffffff;stroke-width:1;stroke-linecap:butt;stroke-linejoin:miter;stroke-miterlimit:10;stroke-dasharray:none;stroke-opacity:1"
           d="m 724.266,66.16 10.086,-3.246 -9.911,-3.75 z" /><text
           id="text280"
           style="font-variant:normal;font-weight:normal;font-size:14.00024414px;font-family:'DejaVu Sans';-inkscape-font-specification:DejaVuSans;writing-mode:lr-tb;fill:#ffffff;fill-opacity:1;fill-rule:nonzero;stroke:none"
           transform="matrix(1,0,0,-1,664,68.398438)"><tspan
             id="tspan278"
             y="0"
             x="0 9.0021572 13.482235 25.466444 34.454601 46.452808">0:&lt;n&gt; </tspan></text>
<path
           id="path282"
           style="fill:none;stroke:#ffffff;stroke-width:1;stroke-linecap:butt;stroke-linejoin:miter;stroke-miterlimit:10;stroke-dasharray:none;stroke-opacity:1"
           d="m 643.48,80.609 c 22.754,9.731 58.145,24.86 83.758,35.813" /><path
           id="path284"
           style="fill:#ffffff;fill-opacity:1;fill-rule:nonzero;stroke:#ffffff;stroke-width:1;stroke-linecap:butt;stroke-linejoin:miter;stroke-miterlimit:10;stroke-dasharray:none;stroke-opacity:1"
           d="m 725.961,119.68 10.57,0.715 -7.82,-7.153 z" /><text
           id="text288"
           style="font-variant:normal;font-weight:normal;font-size:14.00024414px;font-family:'DejaVu Sans';-inkscape-font-specification:DejaVuSans;writing-mode:lr-tb;fill:#ffffff;fill-opacity:1;fill-rule:nonzero;stroke:none"
           transform="matrix(1,0,0,-1,664,114.39844)"><tspan
             id="tspan286"
             y="0"
             x="0 9.0021572 13.482235 25.466444 34.454601 46.452808">0:&lt;n&gt; </tspan></text>
<path
           id="path290"
           style="fill:none;stroke:#ffffff;stroke-width:1;stroke-linecap:butt;stroke-linejoin:miter;stroke-miterlimit:10;stroke-dasharray:none;stroke-opacity:1"
           d="M 781.469,74.004 C 801.938,83.117 833.004,96.953 860,109 c 3.66,1.633 7.48,3.34 11.293,5.039" /><path
           id="path292"
           style="fill:#ffffff;fill-opacity:1;fill-rule:nonzero;stroke:#ffffff;stroke-width:1;stroke-linecap:butt;stroke-linejoin:miter;stroke-miterlimit:10;stroke-dasharray:none;stroke-opacity:1"
           d="m 870.094,117.34 10.558,0.883 -7.703,-7.274 z" /><text
           id="text296"
           style="font-variant:normal;font-weight:normal;font-size:14.00024414px;font-family:'DejaVu Sans';-inkscape-font-specification:DejaVuSans;writing-mode:lr-tb;fill:#ffffff;fill-opacity:1;fill-rule:nonzero;stroke:none"
           transform="matrix(1,0,0,-1,805,113.39844)"><tspan
             id="tspan294"
             y="0"
             x="0 6.7341175 11.228196 23.212404 31.444548 35.182613 47.18082">s:&lt;pl&gt; </tspan></text>
<path
           id="path298"
           style="fill:none;stroke:#ffffff;stroke-width:1;stroke-linecap:butt;stroke-linejoin:miter;stroke-miterlimit:10;stroke-dasharray:none;stroke-opacity:1"
           d="m 783.773,130 c 23.028,0 57.696,0 84.403,0" /><path
           id="path300"
           style="fill:#ffffff;fill-opacity:1;fill-rule:nonzero;stroke:#ffffff;stroke-width:1;stroke-linecap:butt;stroke-linejoin:miter;stroke-miterlimit:10;stroke-dasharray:none;stroke-opacity:1"
           d="m 868.344,133.5 10,-3.5 -10,-3.5 z" /><text
           id="text304"
           style="font-variant:normal;font-weight:normal;font-size:14.00024414px;font-family:'DejaVu Sans';-inkscape-font-specification:DejaVuSans;writing-mode:lr-tb;fill:#ffffff;fill-opacity:1;fill-rule:nonzero;stroke:none"
           transform="matrix(1,0,0,-1,802,134.39844)"><tspan
             id="tspan302"
             y="0"
             x="0 9.0021572 13.482235 25.466444 32.214561 40.446705 52.430912">0:&lt;sg&gt; </tspan></text>
</g></g></g></svg>
